<?xml version="1.0" encoding="UTF-8" standalone="no"?>
<svg
   xmlns:dc="http://purl.org/dc/elements/1.1/"
   xmlns:cc="http://creativecommons.org/ns#"
   xmlns:rdf="http://www.w3.org/1999/02/22-rdf-syntax-ns#"
   xmlns:svg="http://www.w3.org/2000/svg"
   xmlns="http://www.w3.org/2000/svg"
   id="svg189"
   version="1.1"
   viewBox="0.00 0.00 402.54 421.2"
   height="421pt"
   width="403pt">
  <metadata
     id="metadata193">
    <rdf:RDF>
      <cc:Work
         rdf:about="">
        <dc:format>image/svg+xml</dc:format>
        <dc:type
           rdf:resource="http://purl.org/dc/dcmitype/StillImage" />
      </cc:Work>
    </rdf:RDF>
  </metadata>
  <defs
     id="defs47">
    <radialGradient
       spreadMethod="pad"
       y2="0%"
       y1="100%"
       x2="0%"
       x1="0%"
       r="1"
       fy="0.9"
       fx="0.9"
       cy="0.5"
       cx="0.5"
       id="g-terminatorb2dbil0w">
      <stop
         id="stop2"
         stop-opacity="1"
         stop-color="#C32F06"
         offset="0%" />
      <stop
         id="stop4"
         stop-opacity="1"
         stop-color="#C32F06"
         offset="100%" />
    </radialGradient>
    <radialGradient
       spreadMethod="pad"
       y2="0%"
       y1="100%"
       x2="0%"
       x1="0%"
       r="1"
       fy="0.9"
       fx="0.9"
       cy="0.5"
       cx="0.5"
       id="g-decisionb2dbil0w">
      <stop
         id="stop7"
         stop-opacity="1"
         stop-color="#d1461b"
         offset="0%" />
      <stop
         id="stop9"
         stop-opacity="1"
         stop-color="#d1461b"
         offset="100%" />
    </radialGradient>
    <radialGradient
       spreadMethod="pad"
       y2="0%"
       y1="100%"
       x2="0%"
       x1="0%"
       r="1"
       fy="0.9"
       fx="0.9"
       cy="0.5"
       cx="0.5"
       id="g-processb2dbil0w">
      <stop
         id="stop12"
         stop-opacity="1"
         stop-color="#3f51b5"
         offset="0%" />
      <stop
         id="stop14"
         stop-opacity="1"
         stop-color="#3f51b5"
         offset="100%" />
    </radialGradient>
    <radialGradient
       spreadMethod="pad"
       y2="0%"
       y1="100%"
       x2="0%"
       x1="0%"
       r="1"
       fy="0.9"
       fx="0.9"
       cy="0.5"
       cx="0.5"
       id="g-defaultb2dbil0w">
      <stop
         id="stop17"
         stop-opacity="1"
         stop-color="#005100"
         offset="0%" />
      <stop
         id="stop19"
         stop-opacity="1"
         stop-color="#005100"
         offset="100%" />
    </radialGradient>
    <radialGradient
       spreadMethod="pad"
       y2="0%"
       y1="100%"
       x2="0%"
       x1="0%"
       r="1"
       fy="0.9"
       fx="0.9"
       cy="0.5"
       cx="0.5"
       id="g-moduleb2dbil0w">
      <stop
         id="stop22"
         stop-opacity="1"
         stop-color="#009688"
         offset="0%" />
      <stop
         id="stop24"
         stop-opacity="1"
         stop-color="#009688"
         offset="100%" />
    </radialGradient>
    <radialGradient
       spreadMethod="pad"
       y2="0%"
       y1="100%"
       x2="0%"
       x1="0%"
       r="1"
       fy="0.9"
       fx="0.9"
       cy="0.5"
       cx="0.5"
       id="g-dataiob2dbil0w">
      <stop
         id="stop27"
         stop-opacity="1"
         stop-color="#607d8b"
         offset="0%" />
      <stop
         id="stop29"
         stop-opacity="1"
         stop-color="#607d8b"
         offset="100%" />
    </radialGradient>
    <radialGradient
       spreadMethod="pad"
       y2="0%"
       y1="100%"
       x2="0%"
       x1="0%"
       r="1"
       fy="0.9"
       fx="0.9"
       cy="0.5"
       cx="0.5"
       id="g-preparationb2dbil0w">
      <stop
         id="stop32"
         stop-opacity="1"
         stop-color="#607d8b"
         offset="0%" />
      <stop
         id="stop34"
         stop-opacity="1"
         stop-color="#607d8b"
         offset="100%" />
    </radialGradient>
    <radialGradient
       spreadMethod="pad"
       y2="0%"
       y1="100%"
       x2="0%"
       x1="0%"
       r="1"
       fy="0.9"
       fx="0.9"
       cy="0.5"
       cx="0.5"
       id="g-commentb2dbil0w">
      <stop
         id="stop37"
         stop-opacity="1"
         stop-color="#ffab40"
         offset="0%" />
      <stop
         id="stop39"
         stop-opacity="1"
         stop-color="#ffab40"
         offset="100%" />
    </radialGradient>
    <radialGradient
       spreadMethod="pad"
       y2="0%"
       y1="100%"
       x2="0%"
       x1="0%"
       r="1"
       fy="0.9"
       fx="0.9"
       cy="0.5"
       cx="0.5"
       id="g-manualb2dbil0w">
      <stop
         id="stop42"
         stop-opacity="1"
         stop-color="#673ab7"
         offset="0%" />
      <stop
         id="stop44"
         stop-opacity="1"
         stop-color="#673ab7"
         offset="100%" />
    </radialGradient>
  </defs>
  <g
     transform="translate(4,412.2)"
     class="graph"
     id="page0,1_graph0">
    <title
       id="title49">FlowChart</title>
    <!-- terminator_block_1 -->
    <g
       class="node"
       id="node1">
      <title
         id="title51">terminator_block_1</title>
      <path
         id="ellipse53"
         d="m 292.2797,-390.20001 a 69.622704,18 0 0 1 -69.6227,18 69.622704,18 0 0 1 -69.62271,-18 69.622704,18 0 0 1 69.62271,-18 69.622704,18 0 0 1 69.6227,18 z"
         style="fill:url(#g-terminatorb2dbil0w);stroke:#c32f06" />
      <g
         id="text55"
         style="font-size:12px;font-family:'Open Sans', 'Noto Sans SC', 'Noto Sans TC', 'Noto Sans JP', 'Noto Sans KR';text-anchor:start;fill:#ffffff"
         aria-label="Get configuration">
        <path
           id="path196"
           style="font-size:12px;font-family:'Open Sans', 'Noto Sans SC', 'Noto Sans TC', 'Noto Sans JP', 'Noto Sans KR';text-anchor:start;fill:#ffffff"
           d="m 174.88942,-391.38321 q 0,-1.33594 0.5332,-2.33789 0.53907,-1.00781 1.54688,-1.53516 1.00781,-0.5332 2.36133,-0.5332 1.37109,0 2.55468,0.50391 l -0.38672,0.8789 q -1.16015,-0.49218 -2.23242,-0.49218 -1.56445,0 -2.44336,0.93164 -0.8789,0.93164 -0.8789,2.58398 0,1.73438 0.84375,2.63086 0.84961,0.89648 2.49023,0.89648 0.89063,0 1.74024,-0.20507 v -2.63672 h -1.91602 v -0.89063 h 2.91211 v 4.16602 q -0.67969,0.2168 -1.38281,0.32812 -0.70313,0.11133 -1.62891,0.11133 -1.94531,0 -3.0293,-1.1543 -1.08398,-1.16015 -1.08398,-3.24609 z" />
        <path
           id="path198"
           style="font-size:12px;font-family:'Open Sans', 'Noto Sans SC', 'Noto Sans TC', 'Noto Sans JP', 'Noto Sans KR';text-anchor:start;fill:#ffffff"
           d="m 183.57301,-390.25821 q 0,-1.55273 0.76172,-2.4668 0.76758,-0.91406 2.05664,-0.91406 1.20703,0 1.91016,0.79688 0.70312,0.79101 0.70312,2.09179 v 0.61524 h -4.42382 q 0.0293,1.13086 0.56836,1.71679 0.54492,0.58594 1.52929,0.58594 1.03711,0 2.05078,-0.43359 v 0.86719 q -0.51562,0.22265 -0.97851,0.3164 -0.45703,0.0996 -1.10742,0.0996 -1.42383,0 -2.25,-0.86719 -0.82032,-0.86718 -0.82032,-2.4082 z m 1.03125,-0.66797 h 3.35743 q 0,-0.91992 -0.41016,-1.40625 -0.41016,-0.49219 -1.17188,-0.49219 -0.77343,0 -1.23632,0.50391 -0.45704,0.50391 -0.53907,1.39453 z" />
        <path
           id="path200"
           style="font-size:12px;font-family:'Open Sans', 'Noto Sans SC', 'Noto Sans TC', 'Noto Sans JP', 'Noto Sans KR';text-anchor:start;fill:#ffffff"
           d="m 189.80739,-392.76602 v -0.46875 l 0.91992,-0.4043 0.41016,-1.37109 h 0.5625 v 1.48828 h 1.86328 v 0.75586 h -1.86328 v 3.7793 q 0,0.58007 0.27539,0.89062 0.27539,0.31055 0.75586,0.31055 0.25781,0 0.49804,-0.0352 0.24024,-0.041 0.38086,-0.082 v 0.74414 q -0.1582,0.0762 -0.46875,0.12305 -0.30468,0.0527 -0.55078,0.0527 -1.86328,0 -1.86328,-1.96289 v -3.82031 z" />
        <path
           id="path202"
           style="font-size:12px;font-family:'Open Sans', 'Noto Sans SC', 'Noto Sans TC', 'Noto Sans JP', 'Noto Sans KR';text-anchor:start;fill:#ffffff"
           d="m 197.65895,-390.26993 q 0,-1.61133 0.77344,-2.49023 0.7793,-0.87891 2.21484,-0.87891 0.46289,0 0.92578,0.0996 0.46289,0.0996 0.72657,0.23438 l -0.29883,0.82617 q -0.32227,-0.12891 -0.70313,-0.21094 -0.38086,-0.0879 -0.67383,-0.0879 -1.95703,0 -1.95703,2.49609 0,1.1836 0.47461,1.81641 0.48047,0.63281 1.41797,0.63281 0.80274,0 1.64649,-0.3457 v 0.86133 q -0.64454,0.33398 -1.62305,0.33398 -1.39453,0 -2.16211,-0.85547 -0.76172,-0.86133 -0.76172,-2.43164 z" />
        <path
           id="path204"
           style="font-size:12px;font-family:'Open Sans', 'Noto Sans SC', 'Noto Sans TC', 'Noto Sans JP', 'Noto Sans KR';text-anchor:start;fill:#ffffff"
           d="m 203.3777,-390.3168 q 0,-1.57032 0.78516,-2.44336 0.78515,-0.87891 2.17968,-0.87891 1.34766,0 2.13868,0.89649 0.79687,0.89648 0.79687,2.42578 0,1.57031 -0.79101,2.45508 -0.79102,0.8789 -2.18555,0.8789 -0.86133,0 -1.5293,-0.4043 -0.66797,-0.40429 -1.03125,-1.16015 -0.36328,-0.75586 -0.36328,-1.76953 z m 1.00781,0 q 0,1.23047 0.49219,1.875 0.49219,0.64453 1.44727,0.64453 0.95507,0 1.44726,-0.63867 0.49805,-0.64453 0.49805,-1.88086 0,-1.22461 -0.49805,-1.85742 -0.49219,-0.63868 -1.45898,-0.63868 -0.95508,0 -1.44141,0.62696 -0.48633,0.62695 -0.48633,1.86914 z" />
        <path
           id="path206"
           style="font-size:12px;font-family:'Open Sans', 'Noto Sans SC', 'Noto Sans TC', 'Noto Sans JP', 'Noto Sans KR';text-anchor:start;fill:#ffffff"
           d="m 210.97731,-387.10001 v -6.42187 h 0.79102 l 0.1582,0.87891 h 0.0469 q 0.29883,-0.47461 0.83789,-0.73243 0.53907,-0.26367 1.20118,-0.26367 1.16015,0 1.74609,0.5625 0.58594,0.55664 0.58594,1.78711 v 4.18945 h -0.97266 v -4.15429 q 0,-0.78516 -0.35742,-1.17188 -0.35742,-0.38672 -1.11914,-0.38672 -1.00781,0 -1.47656,0.54493 -0.46875,0.54492 -0.46875,1.79882 v 3.36914 z" />
        <path
           id="path208"
           style="font-size:12px;font-family:'Open Sans', 'Noto Sans SC', 'Noto Sans TC', 'Noto Sans JP', 'Noto Sans KR';text-anchor:start;fill:#ffffff"
           d="m 217.47536,-392.76602 v -0.43945 l 1.14843,-0.35157 v -0.35742 q 0,-2.36719 2.06836,-2.36719 0.50977,0 1.19532,0.20508 l -0.25196,0.7793 q -0.5625,-0.18164 -0.96093,-0.18164 -0.55079,0 -0.81446,0.36914 -0.26367,0.36328 -0.26367,1.17187 v 0.41602 h 1.63477 v 0.75586 h -1.63477 v 5.66601 h -0.97266 v -5.66601 z m 4.8457,-2.4961 q 0,-0.33398 0.16406,-0.48632 0.16407,-0.15821 0.41016,-0.15821 0.23437,0 0.4043,0.15821 0.16992,0.1582 0.16992,0.48632 0,0.32813 -0.16992,0.49219 -0.16993,0.15821 -0.4043,0.15821 -0.24609,0 -0.41016,-0.15821 -0.16406,-0.16406 -0.16406,-0.49219 z m 0.082,8.16211 v -6.42187 h 0.97266 v 6.42187 z" />
        <path
           id="path210"
           style="font-size:12px;font-family:'Open Sans', 'Noto Sans SC', 'Noto Sans TC', 'Noto Sans JP', 'Noto Sans KR';text-anchor:start;fill:#ffffff"
           d="m 224.63551,-386.01016 q 0,-0.58594 0.375,-1.01367 0.375,-0.42774 1.05469,-0.58008 -0.24609,-0.11133 -0.41601,-0.34571 -0.16407,-0.23437 -0.16407,-0.54492 0,-0.35156 0.1875,-0.61523 0.1875,-0.26367 0.5918,-0.50977 -0.49805,-0.20508 -0.81445,-0.69726 -0.31055,-0.49219 -0.31055,-1.125 0,-1.05469 0.63281,-1.62305 0.63281,-0.57422 1.79297,-0.57422 0.50391,0 0.9082,0.11719 h 2.22071 v 0.61523 l -1.18946,0.14063 q 0.16407,0.20508 0.29297,0.53906 0.12891,0.32813 0.12891,0.74414 0,0.94336 -0.64453,1.50586 -0.64453,0.5625 -1.76953,0.5625 -0.28711,0 -0.53907,-0.0469 -0.62109,0.32812 -0.62109,0.82617 0,0.26367 0.2168,0.39258 0.21679,0.12304 0.74414,0.12304 h 1.13672 q 1.04297,0 1.59961,0.43946 0.5625,0.43945 0.5625,1.27734 0,1.06641 -0.85547,1.62305 -0.85547,0.5625 -2.4961,0.5625 -1.25976,0 -1.94531,-0.46875 -0.67969,-0.46875 -0.67969,-1.32422 z m 0.9375,-0.0117 q 0,0.52148 0.43946,0.79101 0.43945,0.26954 1.25976,0.26954 1.22461,0 1.81055,-0.36914 0.5918,-0.36329 0.5918,-0.99024 0,-0.52148 -0.32227,-0.72656 -0.32227,-0.19922 -1.21289,-0.19922 h -1.16602 q -0.66211,0 -1.03125,0.31641 -0.36914,0.3164 -0.36914,0.9082 z m 0.52735,-5.44336 q 0,0.67383 0.38086,1.01953 0.38086,0.3457 1.06054,0.3457 1.42383,0 1.42383,-1.38281 0,-1.44726 -1.4414,-1.44726 -0.68555,0 -1.05469,0.36914 -0.36914,0.36914 -0.36914,1.0957 z" />
        <path
           id="path212"
           style="font-size:12px;font-family:'Open Sans', 'Noto Sans SC', 'Noto Sans TC', 'Noto Sans JP', 'Noto Sans KR';text-anchor:start;fill:#ffffff"
           d="m 231.95387,-389.32071 v -4.20117 h 0.98438 v 4.16601 q 0,0.78516 0.35742,1.17188 0.35742,0.38672 1.11914,0.38672 1.00781,0 1.4707,-0.55078 0.46875,-0.55078 0.46875,-1.79883 v -3.375 h 0.97266 v 6.42187 h -0.80273 l -0.14063,-0.86132 h -0.0527 q -0.29883,0.47461 -0.83204,0.72656 -0.52734,0.25195 -1.20703,0.25195 -1.17187,0 -1.75781,-0.55664 -0.58008,-0.55664 -0.58008,-1.78125 z" />
        <path
           id="path214"
           style="font-size:12px;font-family:'Open Sans', 'Noto Sans SC', 'Noto Sans TC', 'Noto Sans JP', 'Noto Sans KR';text-anchor:start;fill:#ffffff"
           d="m 239.38356,-387.10001 v -6.42187 h 0.80273 l 0.11133,1.18945 h 0.0469 q 0.35742,-0.62695 0.86133,-0.96679 0.5039,-0.33985 1.10742,-0.33985 0.42773,0 0.76758,0.0703 l -0.13477,0.90235 q -0.39844,-0.0879 -0.70312,-0.0879 -0.7793,0 -1.33594,0.63281 -0.55078,0.63281 -0.55078,1.57617 v 3.44531 z" />
        <path
           id="path216"
           style="font-size:12px;font-family:'Open Sans', 'Noto Sans SC', 'Noto Sans TC', 'Noto Sans JP', 'Noto Sans KR';text-anchor:start;fill:#ffffff"
           d="m 243.80153,-388.8754 q 0,-1.94531 3.11133,-2.03906 l 1.08984,-0.0352 v -0.39843 q 0,-0.75586 -0.32812,-1.11328 -0.32227,-0.36329 -1.03711,-0.36329 -0.80274,0 -1.81641,0.49219 l -0.29883,-0.74414 q 0.47461,-0.25781 1.03711,-0.4043 0.56836,-0.14648 1.13672,-0.14648 1.14844,0 1.69922,0.50977 0.55664,0.50976 0.55664,1.63476 v 4.38281 h -0.7207 l -0.19336,-0.91406 h -0.0469 q -0.48047,0.60352 -0.96094,0.82031 -0.4746,0.21094 -1.18945,0.21094 -0.95508,0 -1.5,-0.49219 -0.53906,-0.49218 -0.53906,-1.40039 z m 1.01953,0.0117 q 0,0.52735 0.31641,0.80274 0.32226,0.27539 0.89648,0.27539 0.9082,0 1.42383,-0.49805 0.52148,-0.49805 0.52148,-1.39453 v -0.58008 l -0.97265,0.041 q -1.16016,0.041 -1.67578,0.36328 -0.50977,0.3164 -0.50977,0.99023 z" />
        <path
           id="path218"
           style="font-size:12px;font-family:'Open Sans', 'Noto Sans SC', 'Noto Sans TC', 'Noto Sans JP', 'Noto Sans KR';text-anchor:start;fill:#ffffff"
           d="m 250.11208,-392.76602 v -0.46875 l 0.91992,-0.4043 0.41015,-1.37109 h 0.5625 v 1.48828 h 1.86329 v 0.75586 h -1.86329 v 3.7793 q 0,0.58007 0.27539,0.89062 0.2754,0.31055 0.75586,0.31055 0.25782,0 0.49805,-0.0352 0.24024,-0.041 0.38086,-0.082 v 0.74414 q -0.1582,0.0762 -0.46875,0.12305 -0.30469,0.0527 -0.55078,0.0527 -1.86328,0 -1.86328,-1.96289 v -3.82031 z" />
        <path
           id="path220"
           style="font-size:12px;font-family:'Open Sans', 'Noto Sans SC', 'Noto Sans TC', 'Noto Sans JP', 'Noto Sans KR';text-anchor:start;fill:#ffffff"
           d="m 255.12184,-395.26212 q 0,-0.33398 0.16406,-0.48632 0.16407,-0.15821 0.41016,-0.15821 0.23438,0 0.4043,0.15821 0.16992,0.1582 0.16992,0.48632 0,0.32813 -0.16992,0.49219 -0.16992,0.15821 -0.4043,0.15821 -0.24609,0 -0.41016,-0.15821 -0.16406,-0.16406 -0.16406,-0.49219 z m 0.082,8.16211 v -6.42187 h 0.97266 v 6.42187 z" />
        <path
           id="path222"
           style="font-size:12px;font-family:'Open Sans', 'Noto Sans SC', 'Noto Sans TC', 'Noto Sans JP', 'Noto Sans KR';text-anchor:start;fill:#ffffff"
           d="m 257.89333,-390.3168 q 0,-1.57032 0.78515,-2.44336 0.78516,-0.87891 2.17969,-0.87891 1.34766,0 2.13867,0.89649 0.79688,0.89648 0.79688,2.42578 0,1.57031 -0.79102,2.45508 -0.79101,0.8789 -2.18555,0.8789 -0.86132,0 -1.52929,-0.4043 -0.66797,-0.40429 -1.03125,-1.16015 -0.36328,-0.75586 -0.36328,-1.76953 z m 1.00781,0 q 0,1.23047 0.49219,1.875 0.49218,0.64453 1.44726,0.64453 0.95508,0 1.44727,-0.63867 0.49804,-0.64453 0.49804,-1.88086 0,-1.22461 -0.49804,-1.85742 -0.49219,-0.63868 -1.45899,-0.63868 -0.95508,0 -1.4414,0.62696 -0.48633,0.62695 -0.48633,1.86914 z" />
        <path
           id="path224"
           style="font-size:12px;font-family:'Open Sans', 'Noto Sans SC', 'Noto Sans TC', 'Noto Sans JP', 'Noto Sans KR';text-anchor:start;fill:#ffffff"
           d="m 265.49294,-387.10001 v -6.42187 h 0.79101 l 0.1582,0.87891 h 0.0469 q 0.29883,-0.47461 0.83789,-0.73243 0.53906,-0.26367 1.20117,-0.26367 1.16016,0 1.7461,0.5625 0.58593,0.55664 0.58593,1.78711 v 4.18945 h -0.97265 v -4.15429 q 0,-0.78516 -0.35743,-1.17188 -0.35742,-0.38672 -1.11914,-0.38672 -1.00781,0 -1.47656,0.54493 -0.46875,0.54492 -0.46875,1.79882 v 3.36914 z" />
      </g>
    </g>
    <!-- process_block_2 -->
    <g
       class="node"
       id="node2">
      <title
         id="title58">process_block_2</title>
      <path
         id="polygon60"
         d="m 267.657,-313.2 v -36 h -90 v 36 z"
         style="fill:url(#g-processb2dbil0w);stroke:#3f51b5" />
      <g
         id="text62"
         style="font-size:12px;font-family:'Open Sans', 'Noto Sans SC', 'Noto Sans TC', 'Noto Sans JP', 'Noto Sans KR';text-anchor:start;fill:#ffffff"
         aria-label="Start crawling">
        <path
           id="path228"
           style="font-size:12px;font-family:'Open Sans', 'Noto Sans SC', 'Noto Sans TC', 'Noto Sans JP', 'Noto Sans KR';text-anchor:start;fill:#ffffff"
           d="m 185.27809,-328.3754 v -0.96093 q 0.52735,0.22265 1.14844,0.35156 0.62109,0.1289 1.23047,0.1289 0.99609,0 1.5,-0.375 0.5039,-0.38085 0.5039,-1.05468 0,-0.44532 -0.18164,-0.72657 -0.17578,-0.2871 -0.59765,-0.52734 -0.41602,-0.24023 -1.27149,-0.54492 -1.19531,-0.42774 -1.71093,-1.01367 -0.50977,-0.58594 -0.50977,-1.5293 0,-0.99023 0.74414,-1.57617 0.74414,-0.58594 1.96875,-0.58594 1.27734,0 2.34961,0.46875 l -0.31055,0.86719 q -1.06054,-0.44531 -2.0625,-0.44531 -0.79101,0 -1.23633,0.33984 -0.44531,0.33984 -0.44531,0.94336 0,0.44531 0.16406,0.73242 0.16407,0.28125 0.55079,0.52149 0.39257,0.23437 1.19531,0.52148 1.34765,0.48047 1.85156,1.03125 0.50977,0.55078 0.50977,1.42969 0,1.13086 -0.82032,1.76367 -0.82031,0.63281 -2.22656,0.63281 -1.52344,0 -2.34375,-0.39258 z" />
        <path
           id="path230"
           style="font-size:12px;font-family:'Open Sans', 'Noto Sans SC', 'Noto Sans TC', 'Noto Sans JP', 'Noto Sans KR';text-anchor:start;fill:#ffffff"
           d="m 191.42458,-333.76602 v -0.46875 l 0.91992,-0.4043 0.41015,-1.37109 h 0.5625 v 1.48828 h 1.86329 v 0.75586 h -1.86329 v 3.7793 q 0,0.58007 0.27539,0.89062 0.2754,0.31055 0.75586,0.31055 0.25782,0 0.49805,-0.0352 0.24024,-0.041 0.38086,-0.082 v 0.74414 q -0.1582,0.0762 -0.46875,0.12305 -0.30469,0.0527 -0.55078,0.0527 -1.86328,0 -1.86328,-1.96289 v -3.82031 z" />
        <path
           id="path232"
           style="font-size:12px;font-family:'Open Sans', 'Noto Sans SC', 'Noto Sans TC', 'Noto Sans JP', 'Noto Sans KR';text-anchor:start;fill:#ffffff"
           d="m 196.0359,-329.8754 q 0,-1.94531 3.11133,-2.03906 l 1.08985,-0.0352 v -0.39843 q 0,-0.75586 -0.32813,-1.11328 -0.32226,-0.36329 -1.03711,-0.36329 -0.80273,0 -1.8164,0.49219 l -0.29883,-0.74414 q 0.47461,-0.25781 1.03711,-0.4043 0.56836,-0.14648 1.13672,-0.14648 1.14843,0 1.69921,0.50977 0.55664,0.50976 0.55664,1.63476 v 4.38281 h -0.7207 l -0.19336,-0.91406 h -0.0469 q -0.48047,0.60352 -0.96094,0.82031 -0.47461,0.21094 -1.18945,0.21094 -0.95508,0 -1.5,-0.49219 -0.53907,-0.49218 -0.53907,-1.40039 z m 1.01954,0.0117 q 0,0.52735 0.3164,0.80274 0.32227,0.27539 0.89649,0.27539 0.9082,0 1.42382,-0.49805 0.52149,-0.49805 0.52149,-1.39453 v -0.58008 l -0.97266,0.041 q -1.16015,0.041 -1.67578,0.36328 -0.50976,0.3164 -0.50976,0.99023 z" />
        <path
           id="path234"
           style="font-size:12px;font-family:'Open Sans', 'Noto Sans SC', 'Noto Sans TC', 'Noto Sans JP', 'Noto Sans KR';text-anchor:start;fill:#ffffff"
           d="m 203.19606,-328.10001 v -6.42187 h 0.80273 l 0.11133,1.18945 h 0.0469 q 0.35742,-0.62695 0.86133,-0.96679 0.5039,-0.33985 1.10742,-0.33985 0.42773,0 0.76758,0.0703 l -0.13477,0.90235 q -0.39844,-0.0879 -0.70312,-0.0879 -0.7793,0 -1.33594,0.63281 -0.55078,0.63281 -0.55078,1.57617 v 3.44531 z" />
        <path
           id="path236"
           style="font-size:12px;font-family:'Open Sans', 'Noto Sans SC', 'Noto Sans TC', 'Noto Sans JP', 'Noto Sans KR';text-anchor:start;fill:#ffffff"
           d="m 207.24489,-333.76602 v -0.46875 l 0.91992,-0.4043 0.41016,-1.37109 h 0.5625 v 1.48828 h 1.86328 v 0.75586 h -1.86328 v 3.7793 q 0,0.58007 0.27539,0.89062 0.27539,0.31055 0.75586,0.31055 0.25781,0 0.49804,-0.0352 0.24024,-0.041 0.38086,-0.082 v 0.74414 q -0.1582,0.0762 -0.46875,0.12305 -0.30468,0.0527 -0.55078,0.0527 -1.86328,0 -1.86328,-1.96289 v -3.82031 z" />
        <path
           id="path238"
           style="font-size:12px;font-family:'Open Sans', 'Noto Sans SC', 'Noto Sans TC', 'Noto Sans JP', 'Noto Sans KR';text-anchor:start;fill:#ffffff"
           d="m 215.09645,-331.26993 q 0,-1.61133 0.77344,-2.49023 0.7793,-0.87891 2.21484,-0.87891 0.46289,0 0.92578,0.0996 0.46289,0.0996 0.72657,0.23438 l -0.29883,0.82617 q -0.32227,-0.12891 -0.70313,-0.21094 -0.38086,-0.0879 -0.67383,-0.0879 -1.95703,0 -1.95703,2.49609 0,1.1836 0.47461,1.81641 0.48047,0.63281 1.41797,0.63281 0.80274,0 1.64649,-0.3457 v 0.86133 q -0.64454,0.33398 -1.62305,0.33398 -1.39453,0 -2.16211,-0.85547 -0.76172,-0.86133 -0.76172,-2.43164 z" />
        <path
           id="path240"
           style="font-size:12px;font-family:'Open Sans', 'Noto Sans SC', 'Noto Sans TC', 'Noto Sans JP', 'Noto Sans KR';text-anchor:start;fill:#ffffff"
           d="m 221.17262,-328.10001 v -6.42187 h 0.80274 l 0.11133,1.18945 h 0.0469 q 0.35742,-0.62695 0.86133,-0.96679 0.5039,-0.33985 1.10742,-0.33985 0.42773,0 0.76758,0.0703 l -0.13477,0.90235 q -0.39843,-0.0879 -0.70312,-0.0879 -0.7793,0 -1.33594,0.63281 -0.55078,0.63281 -0.55078,1.57617 v 3.44531 z" />
        <path
           id="path242"
           style="font-size:12px;font-family:'Open Sans', 'Noto Sans SC', 'Noto Sans TC', 'Noto Sans JP', 'Noto Sans KR';text-anchor:start;fill:#ffffff"
           d="m 225.59059,-329.8754 q 0,-1.94531 3.11133,-2.03906 l 1.08984,-0.0352 v -0.39843 q 0,-0.75586 -0.32812,-1.11328 -0.32227,-0.36329 -1.03711,-0.36329 -0.80274,0 -1.81641,0.49219 l -0.29883,-0.74414 q 0.47461,-0.25781 1.03711,-0.4043 0.56836,-0.14648 1.13672,-0.14648 1.14844,0 1.69922,0.50977 0.55664,0.50976 0.55664,1.63476 v 4.38281 h -0.7207 l -0.19336,-0.91406 h -0.0469 q -0.48046,0.60352 -0.96093,0.82031 -0.47461,0.21094 -1.18946,0.21094 -0.95507,0 -1.5,-0.49219 -0.53906,-0.49218 -0.53906,-1.40039 z m 1.01953,0.0117 q 0,0.52735 0.31641,0.80274 0.32226,0.27539 0.89648,0.27539 0.90821,0 1.42383,-0.49805 0.52149,-0.49805 0.52149,-1.39453 v -0.58008 l -0.97266,0.041 q -1.16016,0.041 -1.67578,0.36328 -0.50977,0.3164 -0.50977,0.99023 z" />
        <path
           id="path244"
           style="font-size:12px;font-family:'Open Sans', 'Noto Sans SC', 'Noto Sans TC', 'Noto Sans JP', 'Noto Sans KR';text-anchor:start;fill:#ffffff"
           d="m 231.85426,-334.52188 h 1.01953 q 0.6211,2.41992 0.94336,3.68555 0.32813,1.26562 0.375,1.70507 h 0.0469 q 0.0644,-0.33398 0.20508,-0.86132 0.14648,-0.53321 0.25195,-0.84375 l 1.17773,-3.68555 h 1.05469 l 1.14844,3.68555 q 0.32812,1.00781 0.44531,1.69336 h 0.0469 q 0.0234,-0.21094 0.12304,-0.6504 0.10547,-0.43945 1.22461,-4.72851 h 1.00782 l -1.77539,6.42187 h -1.1543 l -1.17774,-3.76757 q -0.11132,-0.34571 -0.41601,-1.57032 h -0.0469 q -0.23437,1.02539 -0.41015,1.58203 l -1.21289,3.75586 h -1.125 z" />
        <path
           id="path246"
           style="font-size:12px;font-family:'Open Sans', 'Noto Sans SC', 'Noto Sans TC', 'Noto Sans JP', 'Noto Sans KR';text-anchor:start;fill:#ffffff"
           d="m 242.07887,-328.10001 v -9.11718 h 0.97266 v 9.11718 z" />
        <path
           id="path248"
           style="font-size:12px;font-family:'Open Sans', 'Noto Sans SC', 'Noto Sans TC', 'Noto Sans JP', 'Noto Sans KR';text-anchor:start;fill:#ffffff"
           d="m 245.04372,-336.26212 q 0,-0.33398 0.16406,-0.48632 0.16406,-0.15821 0.41016,-0.15821 0.23437,0 0.40429,0.15821 0.16992,0.1582 0.16992,0.48632 0,0.32813 -0.16992,0.49219 -0.16992,0.15821 -0.40429,0.15821 -0.2461,0 -0.41016,-0.15821 -0.16406,-0.16406 -0.16406,-0.49219 z m 0.082,8.16211 v -6.42187 h 0.97265 v 6.42187 z" />
        <path
           id="path250"
           style="font-size:12px;font-family:'Open Sans', 'Noto Sans SC', 'Noto Sans TC', 'Noto Sans JP', 'Noto Sans KR';text-anchor:start;fill:#ffffff"
           d="m 248.17262,-328.10001 v -6.42187 h 0.79102 l 0.1582,0.87891 h 0.0469 q 0.29882,-0.47461 0.83789,-0.73243 0.53906,-0.26367 1.20117,-0.26367 1.16016,0 1.74609,0.5625 0.58594,0.55664 0.58594,1.78711 v 4.18945 h -0.97266 v -4.15429 q 0,-0.78516 -0.35742,-1.17188 -0.35742,-0.38672 -1.11914,-0.38672 -1.00781,0 -1.47656,0.54493 -0.46875,0.54492 -0.46875,1.79882 v 3.36914 z" />
        <path
           id="path252"
           style="font-size:12px;font-family:'Open Sans', 'Noto Sans SC', 'Noto Sans TC', 'Noto Sans JP', 'Noto Sans KR';text-anchor:start;fill:#ffffff"
           d="m 254.72926,-327.01016 q 0,-0.58594 0.375,-1.01367 0.375,-0.42774 1.05469,-0.58008 -0.24609,-0.11133 -0.41601,-0.34571 -0.16407,-0.23437 -0.16407,-0.54492 0,-0.35156 0.1875,-0.61523 0.1875,-0.26367 0.5918,-0.50977 -0.49805,-0.20508 -0.81445,-0.69726 -0.31055,-0.49219 -0.31055,-1.125 0,-1.05469 0.63281,-1.62305 0.63281,-0.57422 1.79297,-0.57422 0.50391,0 0.9082,0.11719 h 2.22071 v 0.61523 l -1.18946,0.14063 q 0.16407,0.20508 0.29297,0.53906 0.12891,0.32813 0.12891,0.74414 0,0.94336 -0.64453,1.50586 -0.64453,0.5625 -1.76953,0.5625 -0.28711,0 -0.53907,-0.0469 -0.62109,0.32812 -0.62109,0.82617 0,0.26367 0.2168,0.39258 0.21679,0.12304 0.74414,0.12304 h 1.13672 q 1.04297,0 1.59961,0.43946 0.5625,0.43945 0.5625,1.27734 0,1.06641 -0.85547,1.62305 -0.85547,0.5625 -2.4961,0.5625 -1.25976,0 -1.94531,-0.46875 -0.67969,-0.46875 -0.67969,-1.32422 z m 0.9375,-0.0117 q 0,0.52148 0.43946,0.79101 0.43945,0.26954 1.25976,0.26954 1.22461,0 1.81055,-0.36914 0.5918,-0.36329 0.5918,-0.99024 0,-0.52148 -0.32227,-0.72656 -0.32227,-0.19922 -1.21289,-0.19922 h -1.16602 q -0.66211,0 -1.03125,0.31641 -0.36914,0.3164 -0.36914,0.9082 z m 0.52735,-5.44336 q 0,0.67383 0.38086,1.01953 0.38086,0.3457 1.06054,0.3457 1.42383,0 1.42383,-1.38281 0,-1.44726 -1.4414,-1.44726 -0.68555,0 -1.05469,0.36914 -0.36914,0.36914 -0.36914,1.0957 z" />
      </g>
    </g>
    <!-- terminator_block_1&#45;&gt;process_block_2 -->
    <g
       class="edge"
       id="edge1">
      <title
         id="title65">terminator_block_1-&gt;process_block_2</title>
      <path
         style="fill:none;stroke:#000000"
         id="path67"
         d="m 222.657,-372.177 c 0,3.928 0,8.179 0,12.405" />
      <path
         id="polygon69"
         d="m 226.157,-359.519 -3.5,10 -3.5,-10 z"
         style="fill:#000000;stroke:#000000" />
    </g>
    <!-- nop_block_3 -->
    <g
       class="node"
       id="node3">
      <title
         id="title72">nop_block_3</title>
      <path
         id="ellipse74"
         d="m 224.457,-288.39999 a 1.8,1.8 0 0 1 -1.8,1.8 1.8,1.8 0 0 1 -1.8,-1.8 1.8,1.8 0 0 1 1.8,-1.8 1.8,1.8 0 0 1 1.8,1.8 z"
         style="fill:#000000;stroke:#000000" />
      <g
         id="text76"
         style="font-weight:bold;font-size:12px;font-family:'Open Sans', 'Noto Sans SC', 'Noto Sans TC', 'Noto Sans JP', 'Noto Sans KR';text-anchor:start;fill:#000000" />
    </g>
    <!-- process_block_2&#45;&gt;nop_block_3 -->
    <g
       class="edge"
       id="edge2">
      <title
         id="title79">process_block_2-&gt;nop_block_3</title>
      <path
         style="fill:none;stroke:#000000"
         id="path81"
         d="m 222.657,-312.801 c 0,8.701 0,18.076 0,22.22" />
    </g>
    <!-- ifs_block_4 -->
    <g
       class="node"
       id="node4">
      <title
         id="title84">ifs_block_4</title>
      <path
         id="polygon86"
         d="m 233.47,-245.6 -116.813,-18 -116.813791,18 116.813791,18 z"
         style="fill:url(#g-decisionb2dbil0w);stroke:#d1461b" />
      <g
         id="text88"
         style="font-size:12px;font-family:'Open Sans', 'Noto Sans SC', 'Noto Sans TC', 'Noto Sans JP', 'Noto Sans KR';text-anchor:start;fill:#ffffff"
         aria-label="More pages to crawl?">
        <path
           id="path259"
           style="font-size:12px;font-family:'Open Sans', 'Noto Sans SC', 'Noto Sans TC', 'Noto Sans JP', 'Noto Sans KR';text-anchor:start;fill:#ffffff"
           d="m 58.834335,-242.5 v -8.56641 h 1.5 L 63.047226,-244 h 0.04687 l 2.736328,-7.06641 H 67.31871 V -242.5 h -0.996093 v -5.51953 q 0,-0.94922 0.08203,-2.0625 h -0.04687 L 63.428085,-242.5 h -0.802734 l -2.90625,-7.59375 h -0.04687 q 0.08203,0.90234 0.08203,2.14453 V -242.5 Z" />
        <path
           id="path261"
           style="font-size:12px;font-family:'Open Sans', 'Noto Sans SC', 'Noto Sans TC', 'Noto Sans JP', 'Noto Sans KR';text-anchor:start;fill:#ffffff"
           d="m 69.158554,-245.7168 q 0,-1.57031 0.785156,-2.44336 0.785157,-0.8789 2.179688,-0.8789 1.347656,0 2.138672,0.89648 0.796875,0.89649 0.796875,2.42578 0,1.57032 -0.791016,2.45508 -0.791016,0.87891 -2.185547,0.87891 -0.861328,0 -1.529297,-0.4043 -0.667968,-0.4043 -1.03125,-1.16016 -0.363281,-0.75585 -0.363281,-1.76953 z m 1.007813,0 q 0,1.23047 0.492187,1.875 0.492188,0.64453 1.447266,0.64453 0.955078,0 1.447265,-0.63867 0.498047,-0.64453 0.498047,-1.88086 0,-1.22461 -0.498047,-1.85742 -0.492187,-0.63867 -1.458984,-0.63867 -0.955078,0 -1.441406,0.62695 -0.486328,0.62696 -0.486328,1.86914 z" />
        <path
           id="path263"
           style="font-size:12px;font-family:'Open Sans', 'Noto Sans SC', 'Noto Sans TC', 'Noto Sans JP', 'Noto Sans KR';text-anchor:start;fill:#ffffff"
           d="m 76.758163,-242.5 v -6.42187 h 0.802735 l 0.111328,1.18945 h 0.04687 q 0.357422,-0.62695 0.861328,-0.9668 0.503906,-0.33984 1.107422,-0.33984 0.427734,0 0.767578,0.0703 l -0.134766,0.90234 q -0.398437,-0.0879 -0.703125,-0.0879 -0.779296,0 -1.335937,0.63282 -0.550781,0.63281 -0.550781,1.57617 V -242.5 Z" />
        <path
           id="path265"
           style="font-size:12px;font-family:'Open Sans', 'Noto Sans SC', 'Noto Sans TC', 'Noto Sans JP', 'Noto Sans KR';text-anchor:start;fill:#ffffff"
           d="m 81.299179,-245.6582 q 0,-1.55274 0.761719,-2.4668 0.767578,-0.91406 2.05664,-0.91406 1.207032,0 1.910157,0.79687 0.703125,0.79102 0.703125,2.0918 v 0.61523 h -4.423828 q 0.0293,1.13086 0.568359,1.7168 0.544922,0.58594 1.529297,0.58594 1.037109,0 2.050781,-0.4336 v 0.86719 q -0.515625,0.22266 -0.978516,0.31641 -0.457031,0.0996 -1.107421,0.0996 -1.423829,0 -2.25,-0.86719 -0.820313,-0.86719 -0.820313,-2.4082 z m 1.03125,-0.66797 h 3.357422 q 0,-0.91992 -0.410156,-1.40625 -0.410157,-0.49219 -1.171875,-0.49219 -0.773438,0 -1.236328,0.50391 -0.457032,0.5039 -0.539063,1.39453 z" />
        <path
           id="path267"
           style="font-size:12px;font-family:'Open Sans', 'Noto Sans SC', 'Noto Sans TC', 'Noto Sans JP', 'Noto Sans KR';text-anchor:start;fill:#ffffff"
           d="m 91.500351,-239.61719 v -9.30468 h 0.791016 l 0.134765,0.8789 h 0.04687 q 0.375,-0.52734 0.873047,-0.76172 0.498047,-0.23437 1.142578,-0.23437 1.277344,0 1.96875,0.87304 0.697266,0.87305 0.697266,2.44922 0,1.58203 -0.708985,2.46094 -0.703125,0.87305 -1.957031,0.87305 -0.626953,0 -1.148437,-0.22852 -0.515625,-0.23437 -0.867188,-0.71484 h -0.07031 q 0.07031,0.5625 0.07031,1.0664 v 2.64258 z m 0.972656,-6.09961 q 0,1.35352 0.451172,1.93946 0.451172,0.58007 1.447266,0.58007 0.832031,0 1.300781,-0.67382 0.474609,-0.67383 0.474609,-1.85743 0,-1.20117 -0.474609,-1.83984 -0.46875,-0.64453 -1.324219,-0.64453 -0.984375,0 -1.423828,0.54492 -0.439453,0.54492 -0.451172,1.73438 z" />
        <path
           id="path269"
           style="font-size:12px;font-family:'Open Sans', 'Noto Sans SC', 'Noto Sans TC', 'Noto Sans JP', 'Noto Sans KR';text-anchor:start;fill:#ffffff"
           d="m 98.379257,-244.27539 q 0,-1.94531 3.111333,-2.03906 l 1.08984,-0.0352 v -0.39844 q 0,-0.75586 -0.32813,-1.11328 -0.32226,-0.36328 -1.03711,-0.36328 -0.80273,0 -1.816402,0.49219 l -0.298828,-0.74414 q 0.47461,-0.25781 1.03711,-0.4043 0.56836,-0.14648 1.13672,-0.14648 1.14844,0 1.69922,0.50976 0.55664,0.50977 0.55664,1.63477 V -242.5 h -0.72071 l -0.19335,-0.91406 h -0.0469 q -0.48047,0.60351 -0.96094,0.82031 -0.47461,0.21094 -1.18945,0.21094 -0.955078,0 -1.5,-0.49219 -0.539063,-0.49219 -0.539063,-1.40039 z m 1.019531,0.0117 q 0,0.52734 0.316407,0.80273 0.322265,0.27539 0.896485,0.27539 0.9082,0 1.42383,-0.49804 0.52148,-0.49805 0.52148,-1.39453 v -0.58008 l -0.97265,0.041 q -1.16016,0.041 -1.675786,0.36328 -0.509766,0.31641 -0.509766,0.99024 z" />
        <path
           id="path271"
           style="font-size:12px;font-family:'Open Sans', 'Noto Sans SC', 'Noto Sans TC', 'Noto Sans JP', 'Noto Sans KR';text-anchor:start;fill:#ffffff"
           d="m 104.73668,-241.41016 q 0,-0.58593 0.375,-1.01367 0.375,-0.42773 1.05469,-0.58008 -0.2461,-0.11132 -0.41602,-0.3457 -0.16406,-0.23437 -0.16406,-0.54492 0,-0.35156 0.1875,-0.61524 0.1875,-0.26367 0.5918,-0.50976 -0.49805,-0.20508 -0.81446,-0.69727 -0.31054,-0.49218 -0.31054,-1.125 0,-1.05468 0.63281,-1.62304 0.63281,-0.57422 1.79297,-0.57422 0.5039,0 0.9082,0.11719 h 2.2207 v 0.61523 l -1.18945,0.14062 q 0.16406,0.20508 0.29297,0.53907 0.1289,0.32812 0.1289,0.74414 0,0.94336 -0.64453,1.50586 -0.64453,0.5625 -1.76953,0.5625 -0.28711,0 -0.53906,-0.0469 -0.62109,0.32813 -0.62109,0.82617 0,0.26368 0.21679,0.39258 0.2168,0.12305 0.74414,0.12305 h 1.13672 q 1.04297,0 1.59961,0.43945 0.5625,0.43946 0.5625,1.27735 0,1.0664 -0.85547,1.62304 -0.85547,0.5625 -2.49609,0.5625 -1.25977,0 -1.94531,-0.46875 -0.67969,-0.46875 -0.67969,-1.32422 z m 0.9375,-0.0117 q 0,0.52148 0.43945,0.79101 0.43946,0.26953 1.25977,0.26953 1.22461,0 1.81054,-0.36914 0.5918,-0.36328 0.5918,-0.99023 0,-0.52149 -0.32226,-0.72657 -0.32227,-0.19921 -1.21289,-0.19921 h -1.16602 q -0.66211,0 -1.03125,0.3164 -0.36914,0.31641 -0.36914,0.90821 z m 0.52734,-5.44336 q 0,0.67382 0.38086,1.01953 0.38086,0.3457 1.06055,0.3457 1.42383,0 1.42383,-1.38281 0,-1.44727 -1.44141,-1.44727 -0.68555,0 -1.05469,0.36914 -0.36914,0.36914 -0.36914,1.09571 z" />
        <path
           id="path273"
           style="font-size:12px;font-family:'Open Sans', 'Noto Sans SC', 'Noto Sans TC', 'Noto Sans JP', 'Noto Sans KR';text-anchor:start;fill:#ffffff"
           d="m 111.76793,-245.6582 q 0,-1.55274 0.76172,-2.4668 0.76758,-0.91406 2.05664,-0.91406 1.20703,0 1.91015,0.79687 0.70313,0.79102 0.70313,2.0918 v 0.61523 h -4.42383 q 0.0293,1.13086 0.56836,1.7168 0.54492,0.58594 1.5293,0.58594 1.03711,0 2.05078,-0.4336 v 0.86719 q -0.51563,0.22266 -0.97852,0.31641 -0.45703,0.0996 -1.10742,0.0996 -1.42383,0 -2.25,-0.86719 -0.82031,-0.86719 -0.82031,-2.4082 z m 1.03125,-0.66797 h 3.35742 q 0,-0.91992 -0.41016,-1.40625 -0.41015,-0.49219 -1.17187,-0.49219 -0.77344,0 -1.23633,0.50391 -0.45703,0.5039 -0.53906,1.39453 z" />
        <path
           id="path275"
           style="font-size:12px;font-family:'Open Sans', 'Noto Sans SC', 'Noto Sans TC', 'Noto Sans JP', 'Noto Sans KR';text-anchor:start;fill:#ffffff"
           d="m 118.44176,-247.3457 q 0,-0.78516 0.63867,-1.23633 0.63867,-0.45703 1.75195,-0.45703 1.03711,0 2.02735,0.42187 l -0.34571,0.79102 q -0.96679,-0.39844 -1.75195,-0.39844 -0.69141,0 -1.04297,0.2168 -0.35156,0.21679 -0.35156,0.59765 0,0.25782 0.1289,0.43946 0.13477,0.18164 0.42774,0.3457 0.29297,0.16406 1.125,0.47461 1.14258,0.41602 1.54101,0.83789 0.4043,0.42188 0.4043,1.06055 0,0.89648 -0.66797,1.38281 -0.66797,0.48633 -1.875,0.48633 -1.27734,0 -1.99218,-0.4043 v -0.90234 q 0.46289,0.23437 0.99023,0.36914 0.5332,0.13476 1.02539,0.13476 0.76172,0 1.17188,-0.24023 0.41015,-0.24609 0.41015,-0.74414 0,-0.375 -0.32812,-0.63867 -0.32227,-0.26953 -1.26563,-0.63282 -0.89648,-0.33398 -1.27734,-0.58007 -0.375,-0.25196 -0.5625,-0.56836 -0.18164,-0.31641 -0.18164,-0.75586 z" />
        <path
           id="path277"
           style="font-size:12px;font-family:'Open Sans', 'Noto Sans SC', 'Noto Sans TC', 'Noto Sans JP', 'Noto Sans KR';text-anchor:start;fill:#ffffff"
           d="m 126.83824,-248.16602 v -0.46875 l 0.91992,-0.40429 0.41016,-1.3711 h 0.5625 v 1.48829 h 1.86328 v 0.75585 h -1.86328 v 3.7793 q 0,0.58008 0.27539,0.89063 0.27539,0.31054 0.75586,0.31054 0.25781,0 0.49805,-0.0351 0.24023,-0.041 0.38086,-0.082 v 0.74414 q -0.15821,0.0762 -0.46875,0.12304 -0.30469,0.0527 -0.55079,0.0527 -1.86328,0 -1.86328,-1.96289 v -3.82032 z" />
        <path
           id="path279"
           style="font-size:12px;font-family:'Open Sans', 'Noto Sans SC', 'Noto Sans TC', 'Noto Sans JP', 'Noto Sans KR';text-anchor:start;fill:#ffffff"
           d="m 131.57262,-245.7168 q 0,-1.57031 0.78515,-2.44336 0.78516,-0.8789 2.17969,-0.8789 1.34766,0 2.13867,0.89648 0.79688,0.89649 0.79688,2.42578 0,1.57032 -0.79102,2.45508 -0.79101,0.87891 -2.18555,0.87891 -0.86132,0 -1.52929,-0.4043 -0.66797,-0.4043 -1.03125,-1.16016 -0.36328,-0.75585 -0.36328,-1.76953 z m 1.00781,0 q 0,1.23047 0.49219,1.875 0.49218,0.64453 1.44726,0.64453 0.95508,0 1.44727,-0.63867 0.49804,-0.64453 0.49804,-1.88086 0,-1.22461 -0.49804,-1.85742 -0.49219,-0.63867 -1.45899,-0.63867 -0.95507,0 -1.4414,0.62695 -0.48633,0.62696 -0.48633,1.86914 z" />
        <path
           id="path281"
           style="font-size:12px;font-family:'Open Sans', 'Noto Sans SC', 'Noto Sans TC', 'Noto Sans JP', 'Noto Sans KR';text-anchor:start;fill:#ffffff"
           d="m 141.93199,-245.66992 q 0,-1.61133 0.77344,-2.49024 0.7793,-0.8789 2.21484,-0.8789 0.46289,0 0.92578,0.0996 0.46289,0.0996 0.72657,0.23437 l -0.29883,0.82617 q -0.32227,-0.1289 -0.70313,-0.21093 -0.38086,-0.0879 -0.67382,-0.0879 -1.95704,0 -1.95704,2.49609 0,1.18359 0.47461,1.81641 0.48047,0.63281 1.41797,0.63281 0.80274,0 1.64649,-0.3457 v 0.86132 q -0.64453,0.33399 -1.62305,0.33399 -1.39453,0 -2.16211,-0.85547 -0.76172,-0.86133 -0.76172,-2.43164 z" />
        <path
           id="path283"
           style="font-size:12px;font-family:'Open Sans', 'Noto Sans SC', 'Noto Sans TC', 'Noto Sans JP', 'Noto Sans KR';text-anchor:start;fill:#ffffff"
           d="m 148.00816,-242.5 v -6.42187 h 0.80274 l 0.11133,1.18945 h 0.0469 q 0.35742,-0.62695 0.86133,-0.9668 0.50391,-0.33984 1.10742,-0.33984 0.42774,0 0.76758,0.0703 l -0.13477,0.90234 q -0.39843,-0.0879 -0.70312,-0.0879 -0.7793,0 -1.33594,0.63282 -0.55078,0.63281 -0.55078,1.57617 V -242.5 Z" />
        <path
           id="path285"
           style="font-size:12px;font-family:'Open Sans', 'Noto Sans SC', 'Noto Sans TC', 'Noto Sans JP', 'Noto Sans KR';text-anchor:start;fill:#ffffff"
           d="m 152.42613,-244.27539 q 0,-1.94531 3.11133,-2.03906 l 1.08984,-0.0352 v -0.39844 q 0,-0.75586 -0.32812,-1.11328 -0.32227,-0.36328 -1.03711,-0.36328 -0.80273,0 -1.81641,0.49219 l -0.29882,-0.74414 q 0.4746,-0.25781 1.0371,-0.4043 0.56836,-0.14648 1.13672,-0.14648 1.14844,0 1.69922,0.50976 0.55664,0.50977 0.55664,1.63477 V -242.5 h -0.7207 l -0.19336,-0.91406 h -0.0469 q -0.48047,0.60351 -0.96094,0.82031 -0.47461,0.21094 -1.18946,0.21094 -0.95507,0 -1.5,-0.49219 -0.53906,-0.49219 -0.53906,-1.40039 z m 1.01953,0.0117 q 0,0.52734 0.31641,0.80273 0.32227,0.27539 0.89648,0.27539 0.90821,0 1.42383,-0.49804 0.52149,-0.49805 0.52149,-1.39453 v -0.58008 l -0.97266,0.041 q -1.16016,0.041 -1.67578,0.36328 -0.50977,0.31641 -0.50977,0.99024 z" />
        <path
           id="path287"
           style="font-size:12px;font-family:'Open Sans', 'Noto Sans SC', 'Noto Sans TC', 'Noto Sans JP', 'Noto Sans KR';text-anchor:start;fill:#ffffff"
           d="m 158.6898,-248.92187 h 1.01954 q 0.62109,2.41992 0.94335,3.68554 0.32813,1.26563 0.375,1.70508 h 0.0469 q 0.0644,-0.33398 0.20508,-0.86133 0.14648,-0.5332 0.25195,-0.84375 l 1.17774,-3.68554 h 1.05468 l 1.14844,3.68554 q 0.32813,1.00781 0.44531,1.69336 h 0.0469 q 0.0234,-0.21094 0.12304,-0.65039 0.10547,-0.43945 1.22461,-4.72851 h 1.00782 l -1.77539,6.42187 h -1.1543 l -1.17774,-3.76758 q -0.11132,-0.3457 -0.41601,-1.57031 h -0.0469 q -0.23437,1.02539 -0.41015,1.58203 l -1.21289,3.75586 h -1.125 z" />
        <path
           id="path289"
           style="font-size:12px;font-family:'Open Sans', 'Noto Sans SC', 'Noto Sans TC', 'Noto Sans JP', 'Noto Sans KR';text-anchor:start;fill:#ffffff"
           d="m 168.91441,-242.5 v -9.11719 h 0.97266 V -242.5 Z" />
        <path
           id="path291"
           style="font-size:12px;font-family:'Open Sans', 'Noto Sans SC', 'Noto Sans TC', 'Noto Sans JP', 'Noto Sans KR';text-anchor:start;fill:#ffffff"
           d="m 171.08824,-250.60937 q 1.10742,-0.58008 2.31445,-0.58008 1.11915,0 1.74024,0.55078 0.62109,0.55078 0.62109,1.55273 0,0.42774 -0.11718,0.75586 -0.11133,0.32227 -0.33399,0.61524 -0.22266,0.28711 -0.96094,0.93164 -0.59179,0.5039 -0.78515,0.83789 -0.1875,0.33398 -0.1875,0.89062 v 0.19336 h -0.75586 v -0.3164 q 0,-0.68555 0.21094,-1.125 0.21093,-0.44532 0.78515,-0.9375 0.79688,-0.67383 1.00195,-1.01368 0.21094,-0.33984 0.21094,-0.82031 0,-0.59765 -0.38672,-0.91992 -0.38086,-0.32813 -1.10156,-0.32813 -0.46289,0 -0.90234,0.11133 -0.43946,0.10547 -1.00782,0.39258 z m 1.24805,7.48828 q 0,-0.79688 0.70312,-0.79688 0.33985,0 0.52149,0.20508 0.1875,0.20508 0.1875,0.5918 0,0.375 -0.1875,0.58593 -0.1875,0.20508 -0.52149,0.20508 -0.30468,0 -0.5039,-0.18164 -0.19922,-0.1875 -0.19922,-0.60937 z" />
      </g>
    </g>
    <!-- nop_block_3&#45;&gt;ifs_block_4 -->
    <g
       class="edge"
       id="edge8">
      <title
         id="title91">nop_block_3-&gt;ifs_block_4</title>
      <path
         style="fill:none;stroke:#000000"
         id="path93"
         d="m 220.817,-287.657 c -7.508,3.031 -36.644,14.796 -62.197,25.113" />
      <path
         id="polygon95"
         d="m 159.637,-259.18 -10.583,0.499 7.962,-6.99 z"
         style="fill:#000000;stroke:#000000" />
    </g>
    <!-- process_block_5 -->
    <g
       class="node"
       id="node5">
      <title
         id="title98">process_block_5</title>
      <path
         id="polygon100"
         d="m 205.157,-156.6 v -36 h -81 v 36 z"
         style="fill:url(#g-processb2dbil0w);stroke:#3f51b5" />
      <g
         id="text102"
         style="font-size:12px;font-family:'Open Sans', 'Noto Sans SC', 'Noto Sans TC', 'Noto Sans JP', 'Noto Sans KR';text-anchor:start;fill:#ffffff"
         aria-label="Extract links">
        <path
           id="path296"
           style="font-size:12px;font-family:'Open Sans', 'Noto Sans SC', 'Noto Sans TC', 'Noto Sans JP', 'Noto Sans KR';text-anchor:start;fill:#ffffff"
           d="m 132.33473,-171.5 v -8.56641 h 4.77539 v 0.88477 h -3.77929 v 2.75977 h 3.55078 v 0.8789 h -3.55078 v 3.15235 h 3.77929 V -171.5 Z" />
        <path
           id="path298"
           style="font-size:12px;font-family:'Open Sans', 'Noto Sans SC', 'Noto Sans TC', 'Noto Sans JP', 'Noto Sans KR';text-anchor:start;fill:#ffffff"
           d="m 138.0652,-171.5 2.34961,-3.28711 -2.23242,-3.13476 h 1.10742 l 1.69336,2.46093 1.6875,-2.46093 h 1.0957 l -2.23242,3.13476 2.34961,3.28711 H 142.782 l -1.79883,-2.60156 -1.81641,2.60156 z" />
        <path
           id="path300"
           style="font-size:12px;font-family:'Open Sans', 'Noto Sans SC', 'Noto Sans TC', 'Noto Sans JP', 'Noto Sans KR';text-anchor:start;fill:#ffffff"
           d="m 144.29958,-177.16602 v -0.46875 l 0.91992,-0.40429 0.41015,-1.3711 h 0.5625 v 1.48829 h 1.86329 v 0.75585 h -1.86329 v 3.7793 q 0,0.58008 0.27539,0.89063 0.2754,0.31054 0.75586,0.31054 0.25782,0 0.49805,-0.0351 0.24024,-0.041 0.38086,-0.082 v 0.74414 q -0.1582,0.0762 -0.46875,0.12304 -0.30469,0.0527 -0.55078,0.0527 -1.86328,0 -1.86328,-1.96289 v -3.82032 z" />
        <path
           id="path302"
           style="font-size:12px;font-family:'Open Sans', 'Noto Sans SC', 'Noto Sans TC', 'Noto Sans JP', 'Noto Sans KR';text-anchor:start;fill:#ffffff"
           d="m 149.39137,-171.5 v -6.42187 h 0.80274 l 0.11133,1.18945 h 0.0469 q 0.35742,-0.62695 0.86133,-0.9668 0.5039,-0.33984 1.10742,-0.33984 0.42773,0 0.76758,0.0703 l -0.13477,0.90234 q -0.39843,-0.0879 -0.70312,-0.0879 -0.7793,0 -1.33594,0.63282 -0.55078,0.63281 -0.55078,1.57617 V -171.5 Z" />
        <path
           id="path304"
           style="font-size:12px;font-family:'Open Sans', 'Noto Sans SC', 'Noto Sans TC', 'Noto Sans JP', 'Noto Sans KR';text-anchor:start;fill:#ffffff"
           d="m 153.80934,-173.27539 q 0,-1.94531 3.11133,-2.03906 l 1.08984,-0.0352 v -0.39844 q 0,-0.75586 -0.32812,-1.11328 -0.32227,-0.36328 -1.03711,-0.36328 -0.80274,0 -1.81641,0.49219 l -0.29883,-0.74414 q 0.47461,-0.25781 1.03711,-0.4043 0.56836,-0.14648 1.13672,-0.14648 1.14844,0 1.69922,0.50976 0.55664,0.50977 0.55664,1.63477 V -171.5 h -0.7207 l -0.19336,-0.91406 h -0.0469 q -0.48046,0.60351 -0.96093,0.82031 -0.47461,0.21094 -1.18946,0.21094 -0.95507,0 -1.5,-0.49219 -0.53906,-0.49219 -0.53906,-1.40039 z m 1.01953,0.0117 q 0,0.52734 0.31641,0.80273 0.32226,0.27539 0.89648,0.27539 0.90821,0 1.42383,-0.49804 0.52149,-0.49805 0.52149,-1.39453 v -0.58008 l -0.97266,0.041 q -1.16016,0.041 -1.67578,0.36328 -0.50977,0.31641 -0.50977,0.99024 z" />
        <path
           id="path306"
           style="font-size:12px;font-family:'Open Sans', 'Noto Sans SC', 'Noto Sans TC', 'Noto Sans JP', 'Noto Sans KR';text-anchor:start;fill:#ffffff"
           d="m 160.61208,-174.66992 q 0,-1.61133 0.77343,-2.49024 0.7793,-0.8789 2.21485,-0.8789 0.46289,0 0.92578,0.0996 0.46289,0.0996 0.72656,0.23437 l -0.29883,0.82617 q -0.32226,-0.1289 -0.70312,-0.21093 -0.38086,-0.0879 -0.67383,-0.0879 -1.95703,0 -1.95703,2.49609 0,1.18359 0.47461,1.81641 0.48047,0.63281 1.41797,0.63281 0.80273,0 1.64648,-0.3457 v 0.86132 q -0.64453,0.33399 -1.62305,0.33399 -1.39453,0 -2.16211,-0.85547 -0.76171,-0.86133 -0.76171,-2.43164 z" />
        <path
           id="path308"
           style="font-size:12px;font-family:'Open Sans', 'Noto Sans SC', 'Noto Sans TC', 'Noto Sans JP', 'Noto Sans KR';text-anchor:start;fill:#ffffff"
           d="m 165.83864,-177.16602 v -0.46875 l 0.91992,-0.40429 0.41016,-1.3711 h 0.5625 v 1.48829 h 1.86328 v 0.75585 h -1.86328 v 3.7793 q 0,0.58008 0.27539,0.89063 0.27539,0.31054 0.75586,0.31054 0.25781,0 0.49804,-0.0351 0.24024,-0.041 0.38086,-0.082 v 0.74414 q -0.1582,0.0762 -0.46875,0.12304 -0.30468,0.0527 -0.55078,0.0527 -1.86328,0 -1.86328,-1.96289 v -3.82032 z" />
        <path
           id="path310"
           style="font-size:12px;font-family:'Open Sans', 'Noto Sans SC', 'Noto Sans TC', 'Noto Sans JP', 'Noto Sans KR';text-anchor:start;fill:#ffffff"
           d="m 174.04762,-171.5 v -9.11719 h 0.97266 V -171.5 Z" />
        <path
           id="path312"
           style="font-size:12px;font-family:'Open Sans', 'Noto Sans SC', 'Noto Sans TC', 'Noto Sans JP', 'Noto Sans KR';text-anchor:start;fill:#ffffff"
           d="m 177.01247,-179.66211 q 0,-0.33398 0.16406,-0.48633 0.16406,-0.1582 0.41016,-0.1582 0.23437,0 0.40429,0.1582 0.16992,0.15821 0.16992,0.48633 0,0.32813 -0.16992,0.49219 -0.16992,0.1582 -0.40429,0.1582 -0.2461,0 -0.41016,-0.1582 -0.16406,-0.16406 -0.16406,-0.49219 z m 0.082,8.16211 v -6.42187 h 0.97265 V -171.5 Z" />
        <path
           id="path314"
           style="font-size:12px;font-family:'Open Sans', 'Noto Sans SC', 'Noto Sans TC', 'Noto Sans JP', 'Noto Sans KR';text-anchor:start;fill:#ffffff"
           d="m 180.14137,-171.5 v -6.42187 h 0.79102 l 0.1582,0.8789 h 0.0469 q 0.29882,-0.47461 0.83789,-0.73242 0.53906,-0.26367 1.20117,-0.26367 1.16016,0 1.74609,0.5625 0.58594,0.55664 0.58594,1.78711 V -171.5 h -0.97266 v -4.1543 q 0,-0.78515 -0.35742,-1.17187 -0.35742,-0.38672 -1.11914,-0.38672 -1.00781,0 -1.47656,0.54492 -0.46875,0.54492 -0.46875,1.79883 V -171.5 Z" />
        <path
           id="path316"
           style="font-size:12px;font-family:'Open Sans', 'Noto Sans SC', 'Noto Sans TC', 'Noto Sans JP', 'Noto Sans KR';text-anchor:start;fill:#ffffff"
           d="m 187.50075,-171.5 v -9.11719 h 0.96094 v 4.83399 q 0,0.32226 -0.0469,0.99609 h 0.0469 q 0.25195,-0.35742 0.76757,-0.9375 l 2.07422,-2.19726 h 1.1543 l -2.60156,2.73632 2.7832,3.68555 h -1.17773 l -2.26758,-3.03516 -0.73242,0.63282 V -171.5 Z" />
        <path
           id="path318"
           style="font-size:12px;font-family:'Open Sans', 'Noto Sans SC', 'Noto Sans TC', 'Noto Sans JP', 'Noto Sans KR';text-anchor:start;fill:#ffffff"
           d="m 193.39528,-176.3457 q 0,-0.78516 0.63867,-1.23633 0.63867,-0.45703 1.75195,-0.45703 1.03711,0 2.02735,0.42187 l -0.34571,0.79102 q -0.96679,-0.39844 -1.75195,-0.39844 -0.6914,0 -1.04297,0.2168 -0.35156,0.21679 -0.35156,0.59765 0,0.25782 0.12891,0.43946 0.13476,0.18164 0.42773,0.3457 0.29297,0.16406 1.125,0.47461 1.14258,0.41602 1.54102,0.83789 0.40429,0.42188 0.40429,1.06055 0,0.89648 -0.66797,1.38281 -0.66796,0.48633 -1.875,0.48633 -1.27734,0 -1.99218,-0.4043 v -0.90234 q 0.46289,0.23437 0.99023,0.36914 0.5332,0.13476 1.02539,0.13476 0.76172,0 1.17188,-0.24023 0.41015,-0.24609 0.41015,-0.74414 0,-0.375 -0.32812,-0.63867 -0.32227,-0.26953 -1.26563,-0.63282 -0.89648,-0.33398 -1.27734,-0.58007 -0.375,-0.25196 -0.5625,-0.56836 -0.18164,-0.31641 -0.18164,-0.75586 z" />
      </g>
    </g>
    <!-- ifs_block_4&#45;&gt;process_block_5 -->
    <g
       class="edge"
       id="edge3">
      <title
         id="title105">ifs_block_4-&gt;process_block_5</title>
      <path
         style="fill:none;stroke:#000000"
         id="path107"
         d="m 127.789,-229.133 c 5.641,8.343 12.627,18.677 18.996,28.098" />
      <path
         id="polygon109"
         d="m 149.703,-202.968 2.701,10.245 -8.5,-6.324 z"
         style="fill:#000000;stroke:#000000" />
      <g
         id="text111"
         style="font-weight:bold;font-size:12px;font-family:'Open Sans', 'Noto Sans SC', 'Noto Sans TC', 'Noto Sans JP', 'Noto Sans KR';text-anchor:start;fill:#000000"
         aria-label=" Yes ">
        <path
           id="path322"
           style="font-weight:bold;font-size:12px;font-family:'Open Sans', 'Noto Sans SC', 'Noto Sans TC', 'Noto Sans JP', 'Noto Sans KR';text-anchor:start;fill:#000000"
           d="m 148.77419,-216.56641 h 1.96875 l 1.77539,3.52735 1.78711,-3.52735 h 1.95703 l -2.8418,5.23243 V -208 h -1.80469 v -3.27539 z" />
        <path
           id="path324"
           style="font-weight:bold;font-size:12px;font-family:'Open Sans', 'Noto Sans SC', 'Noto Sans TC', 'Noto Sans JP', 'Noto Sans KR';text-anchor:start;fill:#000000"
           d="m 156.81325,-211.22852 q 0,-1.64648 0.82031,-2.54296 0.82617,-0.90235 2.2793,-0.90235 1.38867,0 2.16211,0.79102 0.77343,0.79101 0.77343,2.18554 v 0.86719 h -4.22461 q 0.0293,0.76172 0.45118,1.18946 0.42187,0.42773 1.18359,0.42773 0.5918,0 1.11914,-0.12305 0.52734,-0.12304 1.10156,-0.39258 v 1.38282 q -0.46875,0.23437 -1.00195,0.3457 -0.5332,0.11719 -1.30078,0.11719 -1.58203,0 -2.47266,-0.87305 -0.89062,-0.87305 -0.89062,-2.47266 z m 1.85156,-0.79101 h 2.50781 q -0.0117,-0.66211 -0.3457,-1.01953 -0.33398,-0.36328 -0.90234,-0.36328 -0.56836,0 -0.89063,0.36328 -0.32226,0.35742 -0.36914,1.01953 z" />
        <path
           id="path326"
           style="font-weight:bold;font-size:12px;font-family:'Open Sans', 'Noto Sans SC', 'Noto Sans TC', 'Noto Sans JP', 'Noto Sans KR';text-anchor:start;fill:#000000"
           d="m 163.91481,-212.8457 q 0,-0.87305 0.67383,-1.34766 0.67969,-0.48047 1.92187,-0.48047 1.1836,0 2.30274,0.51563 l -0.53906,1.28906 q -0.49219,-0.21094 -0.91993,-0.3457 -0.42773,-0.13477 -0.87304,-0.13477 -0.79102,0 -0.79102,0.42774 0,0.24023 0.25195,0.41601 0.25782,0.17578 1.11914,0.52149 0.76758,0.31054 1.125,0.58007 0.35743,0.26953 0.52735,0.6211 0.16992,0.35156 0.16992,0.83789 0,1.00781 -0.70312,1.53515 -0.69727,0.52735 -2.0918,0.52735 -0.71485,0 -1.21875,-0.0996 -0.50391,-0.0937 -0.94336,-0.28125 v -1.47656 q 0.49805,0.23437 1.11914,0.39257 0.62695,0.15821 1.10156,0.15821 0.97266,0 0.97266,-0.5625 0,-0.21094 -0.12891,-0.33985 -0.1289,-0.13476 -0.44531,-0.29882 -0.31641,-0.16993 -0.84375,-0.39258 -0.75586,-0.31641 -1.11328,-0.58594 -0.35156,-0.26953 -0.51563,-0.61523 -0.1582,-0.35157 -0.1582,-0.86133 z" />
      </g>
    </g>
    <!-- terminator_block_9 -->
    <g
       class="node"
       id="node9">
      <title
         id="title114">terminator_block_9</title>
      <path
         id="ellipse116"
         d="m 102.1518,-174.60001 a 49.495201,18 0 0 1 -49.495199,18 49.495201,18 0 0 1 -49.4952012,-18 49.495201,18 0 0 1 49.4952012,-18 49.495201,18 0 0 1 49.495199,18 z"
         style="fill:url(#g-terminatorb2dbil0w);stroke:#c32f06" />
      <g
         id="text118"
         style="font-size:12px;font-family:'Open Sans', 'Noto Sans SC', 'Noto Sans TC', 'Noto Sans JP', 'Noto Sans KR';text-anchor:start;fill:#ffffff"
         aria-label="Write to file">
        <path
           id="path330"
           style="font-size:12px;font-family:'Open Sans', 'Noto Sans SC', 'Noto Sans TC', 'Noto Sans JP', 'Noto Sans KR';text-anchor:start;fill:#ffffff"
           d="m 20.814804,-180.06641 h 1.054688 l 1.353515,5.29102 q 0.28125,1.11328 0.410156,2.01562 0.158204,-1.07226 0.46875,-2.09765 l 1.535157,-5.20899 h 1.054687 l 1.611328,5.25586 q 0.28125,0.90821 0.47461,2.05078 0.111328,-0.83203 0.421875,-2.02734 l 1.347656,-5.2793 h 1.054687 L 29.310898,-171.5 h -0.984375 l -1.728516,-5.73633 q -0.123047,-0.38086 -0.27539,-0.96094 -0.152344,-0.58007 -0.158204,-0.69726 -0.128906,0.77344 -0.410156,1.69336 L 24.078476,-171.5 h -0.984375 z" />
        <path
           id="path332"
           style="font-size:12px;font-family:'Open Sans', 'Noto Sans SC', 'Noto Sans TC', 'Noto Sans JP', 'Noto Sans KR';text-anchor:start;fill:#ffffff"
           d="m 32.797226,-171.5 v -6.42187 h 0.802734 l 0.111328,1.18945 h 0.04687 q 0.357422,-0.62695 0.861329,-0.9668 0.503906,-0.33984 1.107421,-0.33984 0.427735,0 0.767579,0.0703 l -0.134766,0.90234 q -0.398438,-0.0879 -0.703125,-0.0879 -0.779297,0 -1.335938,0.63282 -0.550781,0.63281 -0.550781,1.57617 V -171.5 Z" />
        <path
           id="path334"
           style="font-size:12px;font-family:'Open Sans', 'Noto Sans SC', 'Noto Sans TC', 'Noto Sans JP', 'Noto Sans KR';text-anchor:start;fill:#ffffff"
           d="m 37.613632,-179.66211 q 0,-0.33398 0.164063,-0.48633 0.164062,-0.1582 0.410156,-0.1582 0.234375,0 0.404297,0.1582 0.169922,0.15821 0.169922,0.48633 0,0.32813 -0.169922,0.49219 -0.169922,0.1582 -0.404297,0.1582 -0.246094,0 -0.410156,-0.1582 -0.164063,-0.16406 -0.164063,-0.49219 z m 0.08203,8.16211 v -6.42187 H 38.66832 V -171.5 Z" />
        <path
           id="path336"
           style="font-size:12px;font-family:'Open Sans', 'Noto Sans SC', 'Noto Sans TC', 'Noto Sans JP', 'Noto Sans KR';text-anchor:start;fill:#ffffff"
           d="m 39.892929,-177.16602 v -0.46875 l 0.919922,-0.40429 0.410156,-1.3711 h 0.5625 v 1.48829 h 1.863281 v 0.75585 h -1.863281 v 3.7793 q 0,0.58008 0.275391,0.89063 0.27539,0.31054 0.755859,0.31054 0.257813,0 0.498047,-0.0351 0.240234,-0.041 0.380859,-0.082 v 0.74414 q -0.158203,0.0762 -0.46875,0.12304 -0.304687,0.0527 -0.550781,0.0527 -1.863281,0 -1.863281,-1.96289 v -3.82032 z" />
        <path
           id="path338"
           style="font-size:12px;font-family:'Open Sans', 'Noto Sans SC', 'Noto Sans TC', 'Noto Sans JP', 'Noto Sans KR';text-anchor:start;fill:#ffffff"
           d="m 44.627304,-174.6582 q 0,-1.55274 0.761719,-2.4668 0.767578,-0.91406 2.05664,-0.91406 1.207032,0 1.910157,0.79687 0.703125,0.79102 0.703125,2.0918 v 0.61523 h -4.423828 q 0.0293,1.13086 0.568359,1.7168 0.544922,0.58594 1.529297,0.58594 1.037109,0 2.050781,-0.4336 v 0.86719 q -0.515625,0.22266 -0.978516,0.31641 -0.457031,0.0996 -1.107421,0.0996 -1.423829,0 -2.25,-0.86719 -0.820313,-0.86719 -0.820313,-2.4082 z m 1.03125,-0.66797 h 3.357422 q 0,-0.91992 -0.410156,-1.40625 -0.410157,-0.49219 -1.171875,-0.49219 -0.773438,0 -1.236328,0.50391 -0.457032,0.5039 -0.539063,1.39453 z" />
        <path
           id="path340"
           style="font-size:12px;font-family:'Open Sans', 'Noto Sans SC', 'Noto Sans TC', 'Noto Sans JP', 'Noto Sans KR';text-anchor:start;fill:#ffffff"
           d="m 53.978867,-177.16602 v -0.46875 l 0.919921,-0.40429 0.410157,-1.3711 h 0.5625 v 1.48829 h 1.863281 v 0.75585 h -1.863281 v 3.7793 q 0,0.58008 0.27539,0.89063 0.275391,0.31054 0.75586,0.31054 0.257812,0 0.498047,-0.0351 0.240234,-0.041 0.380859,-0.082 v 0.74414 q -0.158203,0.0762 -0.46875,0.12304 -0.304688,0.0527 -0.550781,0.0527 -1.863282,0 -1.863282,-1.96289 v -3.82032 z" />
        <path
           id="path342"
           style="font-size:12px;font-family:'Open Sans', 'Noto Sans SC', 'Noto Sans TC', 'Noto Sans JP', 'Noto Sans KR';text-anchor:start;fill:#ffffff"
           d="m 58.713242,-174.7168 q 0,-1.57031 0.785156,-2.44336 0.785156,-0.8789 2.179687,-0.8789 1.347657,0 2.138672,0.89648 0.796875,0.89649 0.796875,2.42578 0,1.57032 -0.791015,2.45508 -0.791016,0.87891 -2.185547,0.87891 -0.861328,0 -1.529297,-0.4043 -0.667969,-0.4043 -1.03125,-1.16016 -0.363281,-0.75585 -0.363281,-1.76953 z m 1.007812,0 q 0,1.23047 0.492188,1.875 0.492187,0.64453 1.447265,0.64453 0.955078,0 1.447266,-0.63867 0.498047,-0.64453 0.498047,-1.88086 0,-1.22461 -0.498047,-1.85742 -0.492188,-0.63867 -1.458985,-0.63867 -0.955078,0 -1.441406,0.62695 -0.486328,0.62696 -0.486328,1.86914 z" />
        <path
           id="path344"
           style="font-size:12px;font-family:'Open Sans', 'Noto Sans SC', 'Noto Sans TC', 'Noto Sans JP', 'Noto Sans KR';text-anchor:start;fill:#ffffff"
           d="m 68.56871,-177.16602 v -0.43945 l 1.148438,-0.35156 v -0.35742 q 0,-2.36719 2.068359,-2.36719 0.509766,0 1.195313,0.20508 l -0.251953,0.77929 q -0.5625,-0.18164 -0.960938,-0.18164 -0.550781,0 -0.814453,0.36914 -0.263672,0.36329 -0.263672,1.17188 v 0.41602 h 1.634766 v 0.75585 H 70.689804 V -171.5 h -0.972656 v -5.66602 z m 4.845703,-2.49609 q 0,-0.33398 0.164063,-0.48633 0.164062,-0.1582 0.410156,-0.1582 0.234375,0 0.404297,0.1582 0.169922,0.15821 0.169922,0.48633 0,0.32813 -0.169922,0.49219 -0.169922,0.1582 -0.404297,0.1582 -0.246094,0 -0.410156,-0.1582 -0.164063,-0.16406 -0.164063,-0.49219 z m 0.08203,8.16211 v -6.42187 h 0.972656 V -171.5 Z" />
        <path
           id="path346"
           style="font-size:12px;font-family:'Open Sans', 'Noto Sans SC', 'Noto Sans TC', 'Noto Sans JP', 'Noto Sans KR';text-anchor:start;fill:#ffffff"
           d="m 76.531601,-171.5 v -9.11719 h 0.972656 V -171.5 Z" />
        <path
           id="path348"
           style="font-size:12px;font-family:'Open Sans', 'Noto Sans SC', 'Noto Sans TC', 'Noto Sans JP', 'Noto Sans KR';text-anchor:start;fill:#ffffff"
           d="m 79.221054,-174.6582 q 0,-1.55274 0.761719,-2.4668 0.767578,-0.91406 2.05664,-0.91406 1.207032,0 1.910157,0.79687 0.703125,0.79102 0.703125,2.0918 v 0.61523 h -4.423828 q 0.0293,1.13086 0.568359,1.7168 0.544922,0.58594 1.529297,0.58594 1.037109,0 2.050781,-0.4336 v 0.86719 q -0.515625,0.22266 -0.978516,0.31641 -0.457031,0.0996 -1.107421,0.0996 -1.423829,0 -2.25,-0.86719 -0.820313,-0.86719 -0.820313,-2.4082 z m 1.03125,-0.66797 h 3.357422 q 0,-0.91992 -0.410156,-1.40625 -0.410157,-0.49219 -1.171875,-0.49219 -0.773438,0 -1.236328,0.50391 -0.457032,0.5039 -0.539063,1.39453 z" />
      </g>
    </g>
    <!-- ifs_block_4&#45;&gt;terminator_block_9 -->
    <g
       class="edge"
       id="edge10">
      <title
         id="title121">ifs_block_4-&gt;terminator_block_9</title>
      <path
         style="fill:none;stroke:#000000"
         id="path123"
         d="m 102.134,-229.489 c -7.9154,8.781 -17.8889,19.845 -26.8041,29.736" />
      <path
         id="polygon125"
         d="m 77.7617,-197.224 -9.2952,5.085 4.0958,-9.771 z"
         style="fill:#000000;stroke:#000000" />
      <g
         id="text127"
         style="font-weight:bold;font-size:12px;font-family:'Open Sans', 'Noto Sans SC', 'Noto Sans TC', 'Noto Sans JP', 'Noto Sans KR';text-anchor:start;fill:#000000"
         aria-label=" No ">
        <path
           id="path352"
           style="font-weight:bold;font-size:12px;font-family:'Open Sans', 'Noto Sans SC', 'Noto Sans TC', 'Noto Sans JP', 'Noto Sans KR';text-anchor:start;fill:#000000"
           d="m 94.851913,-208 v -8.56641 h 2.291016 l 3.720701,6.41602 h 0.041 q -0.0879,-1.66992 -0.0879,-2.36133 v -4.05469 h 1.63476 V -208 h -2.30859 l -3.726563,-6.48047 h -0.05273 q 0.111328,1.7168 0.111328,2.44922 V -208 Z" />
        <path
           id="path354"
           style="font-weight:bold;font-size:12px;font-family:'Open Sans', 'Noto Sans SC', 'Noto Sans TC', 'Noto Sans JP', 'Noto Sans KR';text-anchor:start;fill:#000000"
           d="m 104.06285,-211.28711 q 0,-1.60547 0.83789,-2.49609 0.83789,-0.89063 2.35547,-0.89063 0.94336,0 1.66406,0.41016 0.72071,0.41015 1.10742,1.17773 0.38672,0.76758 0.38672,1.79883 0,1.59961 -0.84375,2.50195 -0.84375,0.90235 -2.34961,0.90235 -0.94336,0 -1.66406,-0.41016 -0.7207,-0.41601 -1.10742,-1.18945 -0.38672,-0.77344 -0.38672,-1.80469 z m 1.82227,0 q 0,0.97266 0.3164,1.4707 0.32227,0.49805 1.04297,0.49805 0.71485,0 1.02539,-0.49219 0.31641,-0.49804 0.31641,-1.47656 0,-0.97266 -0.31641,-1.45898 -0.3164,-0.48633 -1.03711,-0.48633 -0.71484,0 -1.03125,0.48633 -0.3164,0.48047 -0.3164,1.45898 z" />
      </g>
    </g>
    <!-- nop_block_6 -->
    <g
       class="node"
       id="node6">
      <title
         id="title130">nop_block_6</title>
      <path
         id="ellipse132"
         d="m 166.457,-131.8 a 1.8,1.8 0 0 1 -1.8,1.8 1.8,1.8 0 0 1 -1.8,-1.8 1.8,1.8 0 0 1 1.8,-1.8 1.8,1.8 0 0 1 1.8,1.8 z"
         style="fill:#000000;stroke:#000000" />
      <g
         id="text134"
         style="font-weight:bold;font-size:12px;font-family:'Open Sans', 'Noto Sans SC', 'Noto Sans TC', 'Noto Sans JP', 'Noto Sans KR';text-anchor:start;fill:#000000" />
    </g>
    <!-- process_block_5&#45;&gt;nop_block_6 -->
    <g
       class="edge"
       id="edge4">
      <title
         id="title137">process_block_5-&gt;nop_block_6</title>
      <path
         style="fill:none;stroke:#000000"
         id="path139"
         d="m 164.657,-156.201 c 0,8.701 0,18.076 0,22.22" />
    </g>
    <!-- ifs_block_7 -->
    <g
       class="node"
       id="node7">
      <title
         id="title142">ifs_block_7</title>
      <path
         id="polygon144"
         d="m 389.417,-89 -121.76,-18 -121.761,18 121.761,18 z"
         style="fill:url(#g-decisionb2dbil0w);stroke:#d1461b" />
      <g
         id="text146"
         style="font-size:12px;font-family:'Open Sans', 'Noto Sans SC', 'Noto Sans TC', 'Noto Sans JP', 'Noto Sans KR';text-anchor:start;fill:#ffffff"
         aria-label="More links to process?">
        <path
           id="path360"
           style="font-size:12px;font-family:'Open Sans', 'Noto Sans SC', 'Noto Sans TC', 'Noto Sans JP', 'Noto Sans KR';text-anchor:start;fill:#ffffff"
           d="m 206.83473,-85.900002 v -8.566406 h 1.5 l 2.71289,7.066406 h 0.0469 l 2.73633,-7.066406 h 1.48828 v 8.566406 h -0.9961 v -5.519531 q 0,-0.949219 0.082,-2.0625 h -0.0469 l -2.92969,7.582031 h -0.80273 l -2.90625,-7.59375 h -0.0469 q 0.082,0.902344 0.082,2.144532 v 5.449218 z" />
        <path
           id="path362"
           style="font-size:12px;font-family:'Open Sans', 'Noto Sans SC', 'Noto Sans TC', 'Noto Sans JP', 'Noto Sans KR';text-anchor:start;fill:#ffffff"
           d="m 217.15895,-89.116798 q 0,-1.570313 0.78516,-2.44336 0.78515,-0.878906 2.17968,-0.878906 1.34766,0 2.13868,0.896484 0.79687,0.896485 0.79687,2.425782 0,1.570312 -0.79101,2.455078 -0.79102,0.878906 -2.18555,0.878906 -0.86133,0 -1.5293,-0.404297 -0.66797,-0.404297 -1.03125,-1.160156 -0.36328,-0.75586 -0.36328,-1.769531 z m 1.00781,0 q 0,1.230468 0.49219,1.875 0.49219,0.644531 1.44727,0.644531 0.95507,0 1.44726,-0.638672 0.49805,-0.644531 0.49805,-1.880859 0,-1.22461 -0.49805,-1.857422 -0.49219,-0.638672 -1.45898,-0.638672 -0.95508,0 -1.44141,0.626953 -0.48633,0.626953 -0.48633,1.869141 z" />
        <path
           id="path364"
           style="font-size:12px;font-family:'Open Sans', 'Noto Sans SC', 'Noto Sans TC', 'Noto Sans JP', 'Noto Sans KR';text-anchor:start;fill:#ffffff"
           d="m 224.75856,-85.900002 v -6.421875 h 0.80273 l 0.11133,1.189454 h 0.0469 q 0.35742,-0.626954 0.86133,-0.966797 0.5039,-0.339844 1.10742,-0.339844 0.42773,0 0.76758,0.07031 l -0.13477,0.902344 q -0.39844,-0.08789 -0.70312,-0.08789 -0.7793,0 -1.33594,0.632812 -0.55078,0.632813 -0.55078,1.576172 v 3.445312 z" />
        <path
           id="path366"
           style="font-size:12px;font-family:'Open Sans', 'Noto Sans SC', 'Noto Sans TC', 'Noto Sans JP', 'Noto Sans KR';text-anchor:start;fill:#ffffff"
           d="m 229.29958,-89.058205 q 0,-1.552734 0.76171,-2.466797 0.76758,-0.914062 2.05665,-0.914062 1.20703,0 1.91015,0.796875 0.70313,0.791016 0.70313,2.091797 v 0.615234 h -4.42383 q 0.0293,1.13086 0.56836,1.716797 0.54492,0.585938 1.52929,0.585938 1.03711,0 2.05079,-0.433594 v 0.867187 q -0.51563,0.222657 -0.97852,0.316407 -0.45703,0.09961 -1.10742,0.09961 -1.42383,0 -2.25,-0.867188 -0.82031,-0.867187 -0.82031,-2.408203 z m 1.03125,-0.667968 h 3.35742 q 0,-0.919922 -0.41016,-1.40625 -0.41015,-0.492188 -1.17187,-0.492188 -0.77344,0 -1.23633,0.503906 -0.45703,0.503907 -0.53906,1.394532 z" />
        <path
           id="path368"
           style="font-size:12px;font-family:'Open Sans', 'Noto Sans SC', 'Noto Sans TC', 'Noto Sans JP', 'Noto Sans KR';text-anchor:start;fill:#ffffff"
           d="m 239.50075,-85.900002 v -9.117187 h 0.97265 v 9.117187 z" />
        <path
           id="path370"
           style="font-size:12px;font-family:'Open Sans', 'Noto Sans SC', 'Noto Sans TC', 'Noto Sans JP', 'Noto Sans KR';text-anchor:start;fill:#ffffff"
           d="m 242.46559,-94.062111 q 0,-0.333984 0.16406,-0.486328 0.16407,-0.158203 0.41016,-0.158203 0.23438,0 0.4043,0.158203 0.16992,0.158203 0.16992,0.486328 0,0.328125 -0.16992,0.492188 -0.16992,0.158203 -0.4043,0.158203 -0.24609,0 -0.41016,-0.158203 -0.16406,-0.164063 -0.16406,-0.492188 z m 0.082,8.162109 v -6.421875 h 0.97266 v 6.421875 z" />
        <path
           id="path372"
           style="font-size:12px;font-family:'Open Sans', 'Noto Sans SC', 'Noto Sans TC', 'Noto Sans JP', 'Noto Sans KR';text-anchor:start;fill:#ffffff"
           d="m 245.5945,-85.900002 v -6.421875 h 0.79101 l 0.15821,0.878907 h 0.0469 q 0.29883,-0.47461 0.83789,-0.732422 0.53906,-0.263672 1.20117,-0.263672 1.16016,0 1.7461,0.5625 0.58594,0.556641 0.58594,1.787109 v 4.189453 h -0.97266 v -4.154296 q 0,-0.785157 -0.35742,-1.171875 -0.35742,-0.386719 -1.11914,-0.386719 -1.00782,0 -1.47657,0.544922 -0.46875,0.544922 -0.46875,1.798828 v 3.36914 z" />
        <path
           id="path374"
           style="font-size:12px;font-family:'Open Sans', 'Noto Sans SC', 'Noto Sans TC', 'Noto Sans JP', 'Noto Sans KR';text-anchor:start;fill:#ffffff"
           d="m 252.95387,-85.900002 v -9.117187 h 0.96094 v 4.833984 q 0,0.322266 -0.0469,0.996094 h 0.0469 q 0.25195,-0.357422 0.76758,-0.9375 l 2.07422,-2.197266 h 1.15429 l -2.60156,2.736329 2.7832,3.685546 h -1.17773 l -2.26758,-3.035156 -0.73242,0.632813 v 2.402343 z" />
        <path
           id="path376"
           style="font-size:12px;font-family:'Open Sans', 'Noto Sans SC', 'Noto Sans TC', 'Noto Sans JP', 'Noto Sans KR';text-anchor:start;fill:#ffffff"
           d="m 258.8484,-90.745705 q 0,-0.785156 0.63868,-1.236328 0.63867,-0.457031 1.75195,-0.457031 1.03711,0 2.02734,0.421875 l -0.3457,0.791016 q -0.9668,-0.398438 -1.75195,-0.398438 -0.69141,0 -1.04297,0.216797 -0.35156,0.216797 -0.35156,0.597656 0,0.257813 0.1289,0.439453 0.13477,0.181641 0.42774,0.345703 0.29296,0.164063 1.125,0.47461 1.14257,0.416015 1.54101,0.83789 0.4043,0.421875 0.4043,1.060547 0,0.896485 -0.66797,1.382813 -0.66797,0.486328 -1.875,0.486328 -1.27734,0 -1.99219,-0.404297 v -0.902344 q 0.46289,0.234375 0.99024,0.369141 0.5332,0.134766 1.02539,0.134766 0.76172,0 1.17187,-0.240235 0.41016,-0.246094 0.41016,-0.74414 0,-0.375 -0.32813,-0.638672 -0.32226,-0.269532 -1.26562,-0.632813 -0.89649,-0.333984 -1.27735,-0.580078 -0.375,-0.251953 -0.5625,-0.568359 -0.18164,-0.316407 -0.18164,-0.75586 z" />
        <path
           id="path378"
           style="font-size:12px;font-family:'Open Sans', 'Noto Sans SC', 'Noto Sans TC', 'Noto Sans JP', 'Noto Sans KR';text-anchor:start;fill:#ffffff"
           d="m 267.24489,-91.566017 v -0.46875 l 0.91992,-0.404297 0.41016,-1.371094 h 0.5625 v 1.488281 h 1.86328 v 0.75586 h -1.86328 v 3.779297 q 0,0.580078 0.27539,0.890625 0.27539,0.310547 0.75586,0.310547 0.25781,0 0.49804,-0.03516 0.24024,-0.04102 0.38086,-0.08203 v 0.744141 q -0.1582,0.07617 -0.46875,0.123047 -0.30468,0.05273 -0.55078,0.05273 -1.86328,0 -1.86328,-1.962891 v -3.820312 z" />
        <path
           id="path380"
           style="font-size:12px;font-family:'Open Sans', 'Noto Sans SC', 'Noto Sans TC', 'Noto Sans JP', 'Noto Sans KR';text-anchor:start;fill:#ffffff"
           d="m 271.97926,-89.116798 q 0,-1.570313 0.78516,-2.44336 0.78516,-0.878906 2.17969,-0.878906 1.34765,0 2.13867,0.896484 0.79687,0.896485 0.79687,2.425782 0,1.570312 -0.79101,2.455078 -0.79102,0.878906 -2.18555,0.878906 -0.86133,0 -1.5293,-0.404297 -0.66796,-0.404297 -1.03125,-1.160156 -0.36328,-0.75586 -0.36328,-1.769531 z m 1.00782,0 q 0,1.230468 0.49218,1.875 0.49219,0.644531 1.44727,0.644531 0.95508,0 1.44726,-0.638672 0.49805,-0.644531 0.49805,-1.880859 0,-1.22461 -0.49805,-1.857422 -0.49218,-0.638672 -1.45898,-0.638672 -0.95508,0 -1.44141,0.626953 -0.48632,0.626953 -0.48632,1.869141 z" />
        <path
           id="path382"
           style="font-size:12px;font-family:'Open Sans', 'Noto Sans SC', 'Noto Sans TC', 'Noto Sans JP', 'Noto Sans KR';text-anchor:start;fill:#ffffff"
           d="m 282.69606,-83.017189 v -9.304688 h 0.79102 l 0.13476,0.878907 h 0.0469 q 0.375,-0.527344 0.87304,-0.761719 0.49805,-0.234375 1.14258,-0.234375 1.27735,0 1.96875,0.873047 0.69727,0.873047 0.69727,2.449219 0,1.582031 -0.70899,2.460937 -0.70312,0.873047 -1.95703,0.873047 -0.62695,0 -1.14844,-0.228516 -0.51562,-0.234375 -0.86718,-0.714843 h -0.0703 q 0.0703,0.5625 0.0703,1.066406 v 2.642578 z m 0.97266,-6.099609 q 0,1.353515 0.45117,1.939453 0.45117,0.580078 1.44726,0.580078 0.83204,0 1.30079,-0.673828 0.4746,-0.673828 0.4746,-1.857422 0,-1.201172 -0.4746,-1.839844 -0.46875,-0.644531 -1.32422,-0.644531 -0.98438,0 -1.42383,0.544922 -0.43945,0.544922 -0.45117,1.734375 z" />
        <path
           id="path384"
           style="font-size:12px;font-family:'Open Sans', 'Noto Sans SC', 'Noto Sans TC', 'Noto Sans JP', 'Noto Sans KR';text-anchor:start;fill:#ffffff"
           d="m 290.05544,-85.900002 v -6.421875 h 0.80273 l 0.11133,1.189454 h 0.0469 q 0.35742,-0.626954 0.86133,-0.966797 0.50391,-0.339844 1.10742,-0.339844 0.42774,0 0.76758,0.07031 l -0.13476,0.902344 q -0.39844,-0.08789 -0.70313,-0.08789 -0.7793,0 -1.33594,0.632812 -0.55078,0.632813 -0.55078,1.576172 v 3.445312 z" />
        <path
           id="path386"
           style="font-size:12px;font-family:'Open Sans', 'Noto Sans SC', 'Noto Sans TC', 'Noto Sans JP', 'Noto Sans KR';text-anchor:start;fill:#ffffff"
           d="m 294.59645,-89.116798 q 0,-1.570313 0.78516,-2.44336 0.78515,-0.878906 2.17968,-0.878906 1.34766,0 2.13868,0.896484 0.79687,0.896485 0.79687,2.425782 0,1.570312 -0.79101,2.455078 -0.79102,0.878906 -2.18555,0.878906 -0.86133,0 -1.5293,-0.404297 -0.66797,-0.404297 -1.03125,-1.160156 -0.36328,-0.75586 -0.36328,-1.769531 z m 1.00781,0 q 0,1.230468 0.49219,1.875 0.49219,0.644531 1.44727,0.644531 0.95507,0 1.44726,-0.638672 0.49805,-0.644531 0.49805,-1.880859 0,-1.22461 -0.49805,-1.857422 -0.49219,-0.638672 -1.45898,-0.638672 -0.95508,0 -1.44141,0.626953 -0.48633,0.626953 -0.48633,1.869141 z" />
        <path
           id="path388"
           style="font-size:12px;font-family:'Open Sans', 'Noto Sans SC', 'Noto Sans TC', 'Noto Sans JP', 'Noto Sans KR';text-anchor:start;fill:#ffffff"
           d="m 301.83864,-89.069923 q 0,-1.611329 0.77344,-2.490235 0.77929,-0.878906 2.21484,-0.878906 0.46289,0 0.92578,0.09961 0.46289,0.09961 0.72656,0.234375 l -0.29882,0.826172 q -0.32227,-0.128906 -0.70313,-0.210937 -0.38086,-0.08789 -0.67383,-0.08789 -1.95703,0 -1.95703,2.496094 0,1.183594 0.47461,1.816406 0.48047,0.632813 1.41797,0.632813 0.80273,0 1.64648,-0.345704 v 0.861329 q -0.64453,0.333984 -1.62304,0.333984 -1.39453,0 -2.16211,-0.855469 -0.76172,-0.861328 -0.76172,-2.43164 z" />
        <path
           id="path390"
           style="font-size:12px;font-family:'Open Sans', 'Noto Sans SC', 'Noto Sans TC', 'Noto Sans JP', 'Noto Sans KR';text-anchor:start;fill:#ffffff"
           d="m 307.55739,-89.058205 q 0,-1.552734 0.76172,-2.466797 0.76758,-0.914062 2.05664,-0.914062 1.20703,0 1.91015,0.796875 0.70313,0.791016 0.70313,2.091797 v 0.615234 h -4.42383 q 0.0293,1.13086 0.56836,1.716797 0.54492,0.585938 1.5293,0.585938 1.03711,0 2.05078,-0.433594 v 0.867187 q -0.51563,0.222657 -0.97852,0.316407 -0.45703,0.09961 -1.10742,0.09961 -1.42383,0 -2.25,-0.867188 -0.82031,-0.867187 -0.82031,-2.408203 z m 1.03125,-0.667968 h 3.35742 q 0,-0.919922 -0.41016,-1.40625 -0.41015,-0.492188 -1.17187,-0.492188 -0.77344,0 -1.23633,0.503906 -0.45703,0.503907 -0.53906,1.394532 z" />
        <path
           id="path392"
           style="font-size:12px;font-family:'Open Sans', 'Noto Sans SC', 'Noto Sans TC', 'Noto Sans JP', 'Noto Sans KR';text-anchor:start;fill:#ffffff"
           d="m 314.23122,-90.745705 q 0,-0.785156 0.63867,-1.236328 0.63867,-0.457031 1.75195,-0.457031 1.03711,0 2.02735,0.421875 l -0.34571,0.791016 q -0.96679,-0.398438 -1.75195,-0.398438 -0.69141,0 -1.04297,0.216797 -0.35156,0.216797 -0.35156,0.597656 0,0.257813 0.1289,0.439453 0.13477,0.181641 0.42774,0.345703 0.29297,0.164063 1.125,0.47461 1.14258,0.416015 1.54101,0.83789 0.4043,0.421875 0.4043,1.060547 0,0.896485 -0.66797,1.382813 -0.66797,0.486328 -1.875,0.486328 -1.27734,0 -1.99219,-0.404297 v -0.902344 q 0.4629,0.234375 0.99024,0.369141 0.5332,0.134766 1.02539,0.134766 0.76172,0 1.17187,-0.240235 0.41016,-0.246094 0.41016,-0.74414 0,-0.375 -0.32812,-0.638672 -0.32227,-0.269532 -1.26563,-0.632813 -0.89648,-0.333984 -1.27734,-0.580078 -0.375,-0.251953 -0.5625,-0.568359 -0.18164,-0.316407 -0.18164,-0.75586 z" />
        <path
           id="path394"
           style="font-size:12px;font-family:'Open Sans', 'Noto Sans SC', 'Noto Sans TC', 'Noto Sans JP', 'Noto Sans KR';text-anchor:start;fill:#ffffff"
           d="m 319.94997,-90.745705 q 0,-0.785156 0.63867,-1.236328 0.63867,-0.457031 1.75195,-0.457031 1.03711,0 2.02735,0.421875 l -0.34571,0.791016 q -0.96679,-0.398438 -1.75195,-0.398438 -0.69141,0 -1.04297,0.216797 -0.35156,0.216797 -0.35156,0.597656 0,0.257813 0.1289,0.439453 0.13477,0.181641 0.42774,0.345703 0.29297,0.164063 1.125,0.47461 1.14258,0.416015 1.54101,0.83789 0.4043,0.421875 0.4043,1.060547 0,0.896485 -0.66797,1.382813 -0.66797,0.486328 -1.875,0.486328 -1.27734,0 -1.99219,-0.404297 v -0.902344 q 0.4629,0.234375 0.99024,0.369141 0.5332,0.134766 1.02539,0.134766 0.76172,0 1.17187,-0.240235 0.41016,-0.246094 0.41016,-0.74414 0,-0.375 -0.32812,-0.638672 -0.32227,-0.269532 -1.26563,-0.632813 -0.89648,-0.333984 -1.27734,-0.580078 -0.375,-0.251953 -0.5625,-0.568359 -0.18164,-0.316407 -0.18164,-0.75586 z" />
        <path
           id="path396"
           style="font-size:12px;font-family:'Open Sans', 'Noto Sans SC', 'Noto Sans TC', 'Noto Sans JP', 'Noto Sans KR';text-anchor:start;fill:#ffffff"
           d="m 325.20583,-94.009377 q 1.10742,-0.580078 2.31445,-0.580078 1.11914,0 1.74023,0.550782 0.6211,0.550781 0.6211,1.552734 0,0.427734 -0.11719,0.755859 -0.11133,0.322266 -0.33398,0.615235 -0.22266,0.287109 -0.96094,0.93164 -0.5918,0.503907 -0.78516,0.837891 -0.1875,0.333984 -0.1875,0.890625 v 0.193359 h -0.75586 v -0.316406 q 0,-0.685547 0.21094,-1.125 0.21094,-0.445312 0.78516,-0.9375 0.79687,-0.673828 1.00195,-1.013672 0.21094,-0.339844 0.21094,-0.820312 0,-0.597657 -0.38672,-0.919922 -0.38086,-0.328125 -1.10156,-0.328125 -0.4629,0 -0.90235,0.111328 -0.43945,0.105469 -1.00781,0.392578 z m 1.24804,7.488282 q 0,-0.796875 0.70313,-0.796875 0.33984,0 0.52148,0.205078 0.1875,0.205078 0.1875,0.591797 0,0.375 -0.1875,0.585937 -0.1875,0.205078 -0.52148,0.205078 -0.30469,0 -0.50391,-0.18164 -0.19922,-0.1875 -0.19922,-0.609375 z" />
      </g>
    </g>
    <!-- nop_block_6&#45;&gt;ifs_block_7 -->
    <g
       class="edge"
       id="edge6">
      <title
         id="title149">nop_block_6-&gt;ifs_block_7</title>
      <path
         style="fill:none;stroke:#000000"
         id="path151"
         d="m 166.444,-131.057 c 7.249,3.012 35.24,14.643 59.953,24.912" />
      <path
         id="polygon153"
         d="m 227.766,-109.366 7.892,7.069 -10.578,-0.605 z"
         style="fill:#000000;stroke:#000000" />
    </g>
    <!-- ifs_block_7&#45;&gt;nop_block_3 -->
    <g
       class="edge"
       id="edge9">
      <title
         id="title156">ifs_block_7-&gt;nop_block_3</title>
      <path
         style="fill:none;stroke:#000000"
         id="path158"
         d="m 267.657,-107.328 c 0,-7.576 0,-16.447 0,-24.472 0,-113.8 0,-113.8 0,-113.8 0,-18.491 -20.196,-31.415 -33.529,-37.933" />
      <path
         id="polygon160"
         d="m 232.357,-280.487 -7.767,-7.206 10.566,0.79 z"
         style="fill:#000000;stroke:#000000" />
      <g
         id="text162"
         style="font-weight:bold;font-size:12px;font-family:'Open Sans', 'Noto Sans SC', 'Noto Sans TC', 'Noto Sans JP', 'Noto Sans KR';text-anchor:start;fill:#000000"
         aria-label=" No ">
        <path
           id="path401"
           style="font-weight:bold;font-size:12px;font-family:'Open Sans', 'Noto Sans SC', 'Noto Sans TC', 'Noto Sans JP', 'Noto Sans KR';text-anchor:start;fill:#000000"
           d="m 271.85233,-172.5 v -8.56641 h 2.29101 l 3.7207,6.41602 h 0.041 q -0.0879,-1.66992 -0.0879,-2.36133 v -4.05469 h 1.63476 V -172.5 h -2.30859 l -3.72656,-6.48047 h -0.0527 q 0.11133,1.7168 0.11133,2.44922 V -172.5 Z" />
        <path
           id="path403"
           style="font-weight:bold;font-size:12px;font-family:'Open Sans', 'Noto Sans SC', 'Noto Sans TC', 'Noto Sans JP', 'Noto Sans KR';text-anchor:start;fill:#000000"
           d="m 281.06326,-175.78711 q 0,-1.60547 0.83789,-2.49609 0.83789,-0.89063 2.35547,-0.89063 0.94336,0 1.66406,0.41016 0.72071,0.41015 1.10743,1.17773 0.38672,0.76758 0.38672,1.79883 0,1.59961 -0.84375,2.50195 -0.84375,0.90235 -2.34961,0.90235 -0.94336,0 -1.66407,-0.41016 -0.7207,-0.41601 -1.10742,-1.18945 -0.38672,-0.77344 -0.38672,-1.80469 z m 1.82227,0 q 0,0.97266 0.3164,1.4707 0.32227,0.49805 1.04297,0.49805 0.71485,0 1.02539,-0.49219 0.31641,-0.49804 0.31641,-1.47656 0,-0.97266 -0.31641,-1.45898 -0.3164,-0.48633 -1.03711,-0.48633 -0.71484,0 -1.03125,0.48633 -0.3164,0.48047 -0.3164,1.45898 z" />
      </g>
    </g>
    <!-- process_block_8 -->
    <g
       class="node"
       id="node8">
      <title
         id="title165">process_block_8</title>
      <path
         id="polygon167"
         d="m 199.657,0 v -36 h -80 V 0 Z"
         style="fill:url(#g-processb2dbil0w);stroke:#3f51b5" />
      <g
         id="text169"
         style="font-size:12px;font-family:'Open Sans', 'Noto Sans SC', 'Noto Sans TC', 'Noto Sans JP', 'Noto Sans KR';text-anchor:start;fill:#ffffff"
         aria-label="Process link">
        <path
           id="path407"
           style="font-size:12px;font-family:'Open Sans', 'Noto Sans SC', 'Noto Sans TC', 'Noto Sans JP', 'Noto Sans KR';text-anchor:start;fill:#ffffff"
           d="m 127.83473,-14.9 v -8.566406 h 2.22071 q 3.21093,0 3.21093,2.496094 0,1.300781 -0.89062,2.003906 -0.88477,0.697266 -2.53711,0.697266 h -1.00781 V -14.9 Z m 0.9961,-4.224609 h 0.89648 q 1.32422,0 1.91602,-0.427734 0.59179,-0.427735 0.59179,-1.371094 0,-0.849609 -0.55664,-1.265625 -0.55664,-0.416016 -1.73437,-0.416016 h -1.11328 z" />
        <path
           id="path409"
           style="font-size:12px;font-family:'Open Sans', 'Noto Sans SC', 'Noto Sans TC', 'Noto Sans JP', 'Noto Sans KR';text-anchor:start;fill:#ffffff"
           d="m 134.907,-14.9 v -6.421875 h 0.80273 l 0.11133,1.189454 h 0.0469 q 0.35742,-0.626954 0.86132,-0.966797 0.50391,-0.339844 1.10743,-0.339844 0.42773,0 0.76757,0.07031 l -0.13476,0.902344 q -0.39844,-0.08789 -0.70313,-0.08789 -0.77929,0 -1.33593,0.632812 -0.55079,0.632813 -0.55079,1.576172 V -14.9 Z" />
        <path
           id="path411"
           style="font-size:12px;font-family:'Open Sans', 'Noto Sans SC', 'Noto Sans TC', 'Noto Sans JP', 'Noto Sans KR';text-anchor:start;fill:#ffffff"
           d="m 139.44801,-18.116796 q 0,-1.570313 0.78516,-2.44336 0.78516,-0.878906 2.17969,-0.878906 1.34765,0 2.13867,0.896484 0.79687,0.896485 0.79687,2.425782 0,1.570312 -0.79101,2.455078 -0.79102,0.878906 -2.18555,0.878906 -0.86133,0 -1.5293,-0.404297 -0.66796,-0.404297 -1.03125,-1.160156 -0.36328,-0.75586 -0.36328,-1.769531 z m 1.00782,0 q 0,1.230468 0.49218,1.875 0.49219,0.644531 1.44727,0.644531 0.95508,0 1.44726,-0.638672 0.49805,-0.644531 0.49805,-1.880859 0,-1.22461 -0.49805,-1.857422 -0.49218,-0.638672 -1.45898,-0.638672 -0.95508,0 -1.44141,0.626953 -0.48632,0.626953 -0.48632,1.869141 z" />
        <path
           id="path413"
           style="font-size:12px;font-family:'Open Sans', 'Noto Sans SC', 'Noto Sans TC', 'Noto Sans JP', 'Noto Sans KR';text-anchor:start;fill:#ffffff"
           d="m 146.6902,-18.069921 q 0,-1.611329 0.77344,-2.490235 0.7793,-0.878906 2.21484,-0.878906 0.46289,0 0.92578,0.09961 0.46289,0.09961 0.72657,0.234375 l -0.29883,0.826172 q -0.32227,-0.128906 -0.70313,-0.210937 -0.38086,-0.08789 -0.67383,-0.08789 -1.95703,0 -1.95703,2.496094 0,1.183594 0.47461,1.816406 0.48047,0.632813 1.41797,0.632813 0.80274,0 1.64649,-0.345704 v 0.861329 q -0.64454,0.333984 -1.62305,0.333984 -1.39453,0 -2.16211,-0.855469 -0.76172,-0.861328 -0.76172,-2.43164 z" />
        <path
           id="path415"
           style="font-size:12px;font-family:'Open Sans', 'Noto Sans SC', 'Noto Sans TC', 'Noto Sans JP', 'Noto Sans KR';text-anchor:start;fill:#ffffff"
           d="m 152.40895,-18.058203 q 0,-1.552734 0.76172,-2.466797 0.76758,-0.914062 2.05664,-0.914062 1.20703,0 1.91016,0.796875 0.70312,0.791016 0.70312,2.091797 v 0.615234 h -4.42383 q 0.0293,1.13086 0.56836,1.716797 0.54492,0.585938 1.5293,0.585938 1.03711,0 2.05078,-0.433594 v 0.867187 q -0.51562,0.222657 -0.97851,0.316407 -0.45704,0.09961 -1.10743,0.09961 -1.42382,0 -2.25,-0.867188 -0.82031,-0.867187 -0.82031,-2.408203 z m 1.03125,-0.667968 h 3.35742 q 0,-0.919922 -0.41015,-1.40625 -0.41016,-0.492188 -1.17188,-0.492188 -0.77344,0 -1.23633,0.503906 -0.45703,0.503907 -0.53906,1.394532 z" />
        <path
           id="path417"
           style="font-size:12px;font-family:'Open Sans', 'Noto Sans SC', 'Noto Sans TC', 'Noto Sans JP', 'Noto Sans KR';text-anchor:start;fill:#ffffff"
           d="m 159.08278,-19.745703 q 0,-0.785156 0.63867,-1.236328 0.63867,-0.457031 1.75195,-0.457031 1.03711,0 2.02735,0.421875 l -0.34571,0.791016 q -0.96679,-0.398438 -1.75195,-0.398438 -0.6914,0 -1.04297,0.216797 -0.35156,0.216797 -0.35156,0.597656 0,0.257813 0.12891,0.439453 0.13476,0.181641 0.42773,0.345703 0.29297,0.164063 1.125,0.47461 1.14258,0.416015 1.54102,0.83789 0.40429,0.421875 0.40429,1.060547 0,0.896485 -0.66797,1.382813 -0.66796,0.486328 -1.875,0.486328 -1.27734,0 -1.99218,-0.404297 v -0.902344 q 0.46289,0.234375 0.99023,0.369141 0.5332,0.134766 1.02539,0.134766 0.76172,0 1.17188,-0.240235 0.41015,-0.246094 0.41015,-0.74414 0,-0.375 -0.32812,-0.638672 -0.32227,-0.269532 -1.26563,-0.632813 -0.89648,-0.333984 -1.27734,-0.580078 -0.375,-0.251953 -0.5625,-0.568359 -0.18164,-0.316407 -0.18164,-0.75586 z" />
        <path
           id="path419"
           style="font-size:12px;font-family:'Open Sans', 'Noto Sans SC', 'Noto Sans TC', 'Noto Sans JP', 'Noto Sans KR';text-anchor:start;fill:#ffffff"
           d="m 164.80153,-19.745703 q 0,-0.785156 0.63867,-1.236328 0.63867,-0.457031 1.75195,-0.457031 1.03711,0 2.02735,0.421875 l -0.34571,0.791016 q -0.96679,-0.398438 -1.75195,-0.398438 -0.6914,0 -1.04297,0.216797 -0.35156,0.216797 -0.35156,0.597656 0,0.257813 0.12891,0.439453 0.13476,0.181641 0.42773,0.345703 0.29297,0.164063 1.125,0.47461 1.14258,0.416015 1.54102,0.83789 0.40429,0.421875 0.40429,1.060547 0,0.896485 -0.66797,1.382813 -0.66796,0.486328 -1.875,0.486328 -1.27734,0 -1.99218,-0.404297 v -0.902344 q 0.46289,0.234375 0.99023,0.369141 0.5332,0.134766 1.02539,0.134766 0.76172,0 1.17188,-0.240235 0.41015,-0.246094 0.41015,-0.74414 0,-0.375 -0.32812,-0.638672 -0.32227,-0.269532 -1.26563,-0.632813 -0.89648,-0.333984 -1.27734,-0.580078 -0.375,-0.251953 -0.5625,-0.568359 -0.18164,-0.316407 -0.18164,-0.75586 z" />
        <path
           id="path421"
           style="font-size:12px;font-family:'Open Sans', 'Noto Sans SC', 'Noto Sans TC', 'Noto Sans JP', 'Noto Sans KR';text-anchor:start;fill:#ffffff"
           d="m 174.04762,-14.9 v -9.117187 h 0.97266 V -14.9 Z" />
        <path
           id="path423"
           style="font-size:12px;font-family:'Open Sans', 'Noto Sans SC', 'Noto Sans TC', 'Noto Sans JP', 'Noto Sans KR';text-anchor:start;fill:#ffffff"
           d="m 177.01247,-23.062109 q 0,-0.333984 0.16406,-0.486328 0.16406,-0.158203 0.41016,-0.158203 0.23437,0 0.40429,0.158203 0.16992,0.158203 0.16992,0.486328 0,0.328125 -0.16992,0.492188 -0.16992,0.158203 -0.40429,0.158203 -0.2461,0 -0.41016,-0.158203 -0.16406,-0.164063 -0.16406,-0.492188 z m 0.082,8.162109 v -6.421875 h 0.97265 V -14.9 Z" />
        <path
           id="path425"
           style="font-size:12px;font-family:'Open Sans', 'Noto Sans SC', 'Noto Sans TC', 'Noto Sans JP', 'Noto Sans KR';text-anchor:start;fill:#ffffff"
           d="m 180.14137,-14.9 v -6.421875 h 0.79102 l 0.1582,0.878907 h 0.0469 q 0.29882,-0.47461 0.83789,-0.732422 0.53906,-0.263672 1.20117,-0.263672 1.16016,0 1.74609,0.5625 0.58594,0.556641 0.58594,1.787109 V -14.9 h -0.97266 v -4.154296 q 0,-0.785157 -0.35742,-1.171875 -0.35742,-0.386719 -1.11914,-0.386719 -1.00781,0 -1.47656,0.544922 -0.46875,0.544922 -0.46875,1.798828 V -14.9 Z" />
        <path
           id="path427"
           style="font-size:12px;font-family:'Open Sans', 'Noto Sans SC', 'Noto Sans TC', 'Noto Sans JP', 'Noto Sans KR';text-anchor:start;fill:#ffffff"
           d="m 187.50075,-14.9 v -9.117187 h 0.96094 v 4.833984 q 0,0.322266 -0.0469,0.996094 h 0.0469 q 0.25195,-0.357422 0.76757,-0.9375 l 2.07422,-2.197266 h 1.1543 l -2.60156,2.736329 2.7832,3.685546 h -1.17773 l -2.26758,-3.035156 -0.73242,0.632813 V -14.9 Z" />
      </g>
    </g>
    <!-- ifs_block_7&#45;&gt;process_block_8 -->
    <g
       class="edge"
       id="edge5">
      <title
         id="title172">ifs_block_7-&gt;process_block_8</title>
      <path
         style="fill:none;stroke:#000000"
         id="path174"
         d="m 245.279,-74.2888 c -14.18,9.3218 -32.851,21.5964 -49.138,32.3036" />
      <path
         id="polygon176"
         d="m 197.66,-38.7954 -10.278,2.5688 6.433,-8.418 z"
         style="fill:#000000;stroke:#000000" />
      <g
         id="text178"
         style="font-weight:bold;font-size:12px;font-family:'Open Sans', 'Noto Sans SC', 'Noto Sans TC', 'Noto Sans JP', 'Noto Sans KR';text-anchor:start;fill:#000000"
         aria-label=" Yes ">
        <path
           id="path431"
           style="font-weight:bold;font-size:12px;font-family:'Open Sans', 'Noto Sans SC', 'Noto Sans TC', 'Noto Sans JP', 'Noto Sans KR';text-anchor:start;fill:#000000"
           d="m 225.77419,-59.966408 h 1.96875 l 1.77539,3.527344 1.78711,-3.527344 h 1.95703 l -2.8418,5.232422 v 3.333984 h -1.80469 v -3.27539 z" />
        <path
           id="path433"
           style="font-weight:bold;font-size:12px;font-family:'Open Sans', 'Noto Sans SC', 'Noto Sans TC', 'Noto Sans JP', 'Noto Sans KR';text-anchor:start;fill:#000000"
           d="m 233.81325,-54.628517 q 0,-1.646485 0.82031,-2.542969 0.82617,-0.902344 2.2793,-0.902344 1.38867,0 2.16211,0.791016 0.77343,0.791016 0.77343,2.185547 v 0.867187 h -4.22461 q 0.0293,0.761719 0.45118,1.189453 0.42187,0.427735 1.18359,0.427735 0.5918,0 1.11914,-0.123047 0.52734,-0.123047 1.10156,-0.392578 v 1.382812 q -0.46875,0.234375 -1.00195,0.345703 -0.5332,0.117188 -1.30078,0.117188 -1.58203,0 -2.47266,-0.873047 -0.89062,-0.873047 -0.89062,-2.472656 z m 1.85156,-0.791016 h 2.50781 q -0.0117,-0.662109 -0.3457,-1.019531 -0.33398,-0.363281 -0.90234,-0.363281 -0.56836,0 -0.89063,0.363281 -0.32226,0.357422 -0.36914,1.019531 z" />
        <path
           id="path435"
           style="font-weight:bold;font-size:12px;font-family:'Open Sans', 'Noto Sans SC', 'Noto Sans TC', 'Noto Sans JP', 'Noto Sans KR';text-anchor:start;fill:#000000"
           d="m 240.91481,-56.245705 q 0,-0.873047 0.67383,-1.347656 0.67969,-0.480469 1.92187,-0.480469 1.1836,0 2.30274,0.515625 l -0.53906,1.289063 q -0.49219,-0.210938 -0.91993,-0.345703 -0.42773,-0.134766 -0.87304,-0.134766 -0.79102,0 -0.79102,0.427734 0,0.240235 0.25195,0.416016 0.25782,0.175781 1.11914,0.521484 0.76758,0.310547 1.125,0.580079 0.35743,0.269531 0.52735,0.621093 0.16992,0.351563 0.16992,0.837891 0,1.007812 -0.70312,1.535156 -0.69727,0.527344 -2.0918,0.527344 -0.71485,0 -1.21875,-0.09961 -0.50391,-0.09375 -0.94336,-0.28125 v -1.476563 q 0.49805,0.234375 1.11914,0.392578 0.62695,0.158203 1.10156,0.158203 0.97266,0 0.97266,-0.5625 0,-0.210937 -0.12891,-0.339843 -0.1289,-0.134766 -0.44531,-0.298829 -0.31641,-0.169921 -0.84375,-0.392578 -0.75586,-0.316406 -1.11328,-0.585937 -0.35156,-0.269531 -0.51563,-0.615235 -0.1582,-0.351562 -0.1582,-0.861328 z" />
      </g>
    </g>
    <!-- process_block_8&#45;&gt;nop_block_6 -->
    <g
       class="edge"
       id="edge7">
      <title
         id="title181">process_block_8-&gt;nop_block_6</title>
      <path
         style="fill:none;stroke:#000000"
         id="path183"
         d="M 147.336,-36.014 C 136.376,-54.4473 123.65,-83.6217 134.657,-107 c 3.909,-8.303 12.114,-14.777 18.956,-19.024" />
      <path
         id="polygon185"
         d="m 152.38,-129.336 10.463,-1.667 -7.14,7.828 z"
         style="fill:#000000;stroke:#000000" />
    </g>
  </g>
</svg>
